<svg xmlns="http://www.w3.org/2000/svg" xmlns:xlink="http://www.w3.org/1999/xlink" xmlns:lucid="lucid" width="1360" height="1020"><g transform="translate(-280 -100)" lucid:page-tab-id="0_0"><path d="M0 0h1870.4v1323.2H0z" fill="#fff"/><path d="M440 120h842v60H440z" fill="none"/><use xlink:href="#a" transform="matrix(1,0,0,1,439.99999999999994,120) translate(254.02499999999998 33.6)"/><use xlink:href="#b" transform="matrix(1,0,0,1,439.99999999999994,120) translate(291.97499999999997 33.6)"/><use xlink:href="#c" transform="matrix(1,0,0,1,439.99999999999994,120) translate(388.425 33.6)"/><use xlink:href="#d" transform="matrix(1,0,0,1,439.99999999999994,120) translate(429.32500000000005 33.6)"/><use xlink:href="#e" transform="matrix(1,0,0,1,439.99999999999994,120) translate(473.225 33.6)"/><path d="M640 180h479v120H640z" stroke="#000" stroke-width="2" fill="#fff"/><use xlink:href="#f" transform="matrix(1,0,0,1,645,185) translate(6.800000000000011 58.6)"/><use xlink:href="#g" transform="matrix(1,0,0,1,645,185) translate(53.750000000000014 58.6)"/><use xlink:href="#h" transform="matrix(1,0,0,1,645,185) translate(83.75000000000001 58.6)"/><use xlink:href="#i" transform="matrix(1,0,0,1,645,185) translate(128.70000000000002 58.6)"/><use xlink:href="#g" transform="matrix(1,0,0,1,645,185) translate(162.70000000000002 58.6)"/><use xlink:href="#j" transform="matrix(1,0,0,1,645,185) translate(192.70000000000002 58.6)"/><use xlink:href="#k" transform="matrix(1,0,0,1,645,185) translate(263.55 58.6)"/><use xlink:href="#l" transform="matrix(1,0,0,1,645,185) translate(302.45 58.6)"/><use xlink:href="#m" transform="matrix(1,0,0,1,645,185) translate(322.45 58.6)"/><use xlink:href="#n" transform="matrix(1,0,0,1,645,185) translate(367.34999999999997 58.6)"/><path d="M1140 160h460v160h-460z" fill="none"/><path d="M1140 320c5.52 0 10-4.48 10-10v-60c0-5.52 4.48-10 10-10-5.52 0-10-4.48-10-10v-60c0-5.52-4.48-10-10-10" stroke="#000" stroke-width="2" fill="none"/><use xlink:href="#o" transform="matrix(1,0,0,1,1175,165) translate(0 46.19999999999999)"/><use xlink:href="#p" transform="matrix(1,0,0,1,1175,165) translate(38.900000000000006 46.19999999999999)"/><use xlink:href="#q" transform="matrix(1,0,0,1,1175,165) translate(109.80000000000001 46.19999999999999)"/><use xlink:href="#r" transform="matrix(1,0,0,1,1175,165) translate(171.8 46.19999999999999)"/><use xlink:href="#s" transform="matrix(1,0,0,1,1175,165) translate(235.70000000000002 46.19999999999999)"/><use xlink:href="#t" transform="matrix(1,0,0,1,1175,165) translate(341.65000000000003 46.19999999999999)"/><use xlink:href="#u" transform="matrix(1,0,0,1,1175,165) translate(0 67.8)"/><use xlink:href="#v" transform="matrix(1,0,0,1,1175,165) translate(81.9 67.8)"/><use xlink:href="#w" transform="matrix(1,0,0,1,1175,165) translate(138.75 67.8)"/><use xlink:href="#s" transform="matrix(1,0,0,1,1175,165) translate(196.7 67.8)"/><use xlink:href="#x" transform="matrix(1,0,0,1,1175,165) translate(302.65 67.8)"/><use xlink:href="#y" transform="matrix(1,0,0,1,1175,165) translate(343.59999999999997 67.8)"/><use xlink:href="#z" transform="matrix(1,0,0,1,1175,165) translate(0 89.4)"/><use xlink:href="#A" transform="matrix(1,0,0,1,1175,165) translate(71.80000000000001 89.4)"/><use xlink:href="#B" transform="matrix(1,0,0,1,1175,165) translate(87.75000000000001 89.4)"/><use xlink:href="#C" transform="matrix(1,0,0,1,1175,165) translate(121.75000000000001 89.4)"/><use xlink:href="#D" transform="matrix(1,0,0,1,1175,165) translate(156.75 89.4)"/><use xlink:href="#E" transform="matrix(1,0,0,1,1175,165) translate(195.65 89.4)"/><use xlink:href="#F" transform="matrix(1,0,0,1,1175,165) translate(221.6 89.4)"/><use xlink:href="#G" transform="matrix(1,0,0,1,1175,165) translate(311.45 89.4)"/><use xlink:href="#H" transform="matrix(1,0,0,1,1175,165) translate(0 111)"/><use xlink:href="#I" transform="matrix(1,0,0,1,1175,165) translate(57.85 111)"/><use xlink:href="#J" transform="matrix(1,0,0,1,1175,165) translate(83.85 111)"/><path d="M900 400h479v120H900z" stroke="#000" stroke-width="2" fill="#fff"/><use xlink:href="#K" transform="matrix(1,0,0,1,905,405) translate(4.375000000000028 47.8)"/><use xlink:href="#L" transform="matrix(1,0,0,1,905,405) translate(41.37500000000003 47.8)"/><use xlink:href="#M" transform="matrix(1,0,0,1,905,405) translate(71.17500000000003 47.8)"/><use xlink:href="#N" transform="matrix(1,0,0,1,905,405) translate(115.07500000000002 47.8)"/><use xlink:href="#g" transform="matrix(1,0,0,1,905,405) translate(155.025 47.8)"/><use xlink:href="#O" transform="matrix(1,0,0,1,905,405) translate(185.025 47.8)"/><use xlink:href="#P" transform="matrix(1,0,0,1,905,405) translate(233.975 47.8)"/><use xlink:href="#Q" transform="matrix(1,0,0,1,905,405) translate(268.975 47.8)"/><use xlink:href="#R" transform="matrix(1,0,0,1,905,405) translate(317.92499999999995 47.8)"/><use xlink:href="#L" transform="matrix(1,0,0,1,905,405) translate(376.875 47.8)"/><use xlink:href="#S" transform="matrix(1,0,0,1,905,405) translate(406.67499999999995 47.8)"/><use xlink:href="#T" transform="matrix(1,0,0,1,905,405) translate(455.67499999999995 47.8)"/><use xlink:href="#N" transform="matrix(1,0,0,1,905,405) translate(182.575 69.4)"/><use xlink:href="#g" transform="matrix(1,0,0,1,905,405) translate(222.52499999999998 69.4)"/><use xlink:href="#U" transform="matrix(1,0,0,1,905,405) translate(252.52499999999998 69.4)"/><path d="M1140.5 349v31.5h-2V351h-115v-2zm-145 0v2h-117v-49h2v47z"/><path d="M880.5 302.03h-2V301h2zM1139.5 395.76l-4.64-14.26h9.28z"/><path d="M1139.5 399l-6-18.5h12zm-3.26-16.5l3.26 10.03 3.26-10.03z"/><use xlink:href="#V" transform="matrix(1,0,0,1,995.5,339.2) translate(0 14.4)"/><path d="M660 400l80 60-80 60-80-60z" stroke="#000" stroke-width="2" fill="#fff"/><use xlink:href="#W" transform="matrix(1,0,0,1,585,405) translate(37.575 47.8)"/><use xlink:href="#X" transform="matrix(1,0,0,1,585,405) translate(74.525 47.8)"/><use xlink:href="#Y" transform="matrix(1,0,0,1,585,405) translate(33.05 69.4)"/><path d="M759.75 350.88H661v29.37h-2v-31.38h100.75zm120.75 0H779.75v-2h98.75V302h2z"/><path d="M880.5 302.03h-2V301h2zM660 395.5l-4.64-14.25h9.28z"/><path d="M660 398.75l-6-18.5h12zm-3.26-16.5l3.26 10.03 3.26-10.03z"/><use xlink:href="#Z" transform="matrix(1,0,0,1,759.75,339.075) translate(0 14.4)"/><path d="M360 380h200v160H360z" fill="none"/><path d="M560 540c-5.52 0-10-4.48-10-10v-60c0-5.52-4.48-10-10-10 5.52 0 10-4.48 10-10v-60c0-5.52 4.48-10 10-10" stroke="#000" stroke-width="2" fill="none"/><use xlink:href="#aa" transform="matrix(1,0,0,1,365,385) translate(50.150000000000006 57)"/><use xlink:href="#ab" transform="matrix(1,0,0,1,365,385) translate(120.10000000000001 57)"/><use xlink:href="#ac" transform="matrix(1,0,0,1,365,385) translate(41.099999999999994 78.60000000000001)"/><use xlink:href="#ad" transform="matrix(1,0,0,1,365,385) translate(130 78.60000000000001)"/><use xlink:href="#ae" transform="matrix(1,0,0,1,365,385) translate(74.1 100.20000000000002)"/><use xlink:href="#U" transform="matrix(1,0,0,1,365,385) translate(126.1 100.20000000000002)"/><path d="M560 580h479v120H560z" stroke="#000" stroke-width="2" fill="#fff"/><g><use xlink:href="#af" transform="matrix(1,0,0,1,565,585) translate(33.67500000000001 47.8)"/><use xlink:href="#ag" transform="matrix(1,0,0,1,565,585) translate(82.57500000000002 47.8)"/><use xlink:href="#ah" transform="matrix(1,0,0,1,565,585) translate(134.425 47.8)"/><use xlink:href="#P" transform="matrix(1,0,0,1,565,585) translate(177.425 47.8)"/><use xlink:href="#ai" transform="matrix(1,0,0,1,565,585) translate(212.425 47.8)"/><use xlink:href="#aj" transform="matrix(1,0,0,1,565,585) translate(279.425 47.8)"/><use xlink:href="#ak" transform="matrix(1,0,0,1,565,585) translate(304.425 47.8)"/><use xlink:href="#al" transform="matrix(1,0,0,1,565,585) translate(348.425 47.8)"/><use xlink:href="#ad" transform="matrix(1,0,0,1,565,585) translate(405.325 47.8)"/><use xlink:href="#am" transform="matrix(1,0,0,1,565,585) translate(187.525 69.4)"/></g><path d="M955.5 551h-155v9.5h-2V549h157zm185 0h-157v-2h155v-27h2z"/><path d="M1140.5 522.03h-2V521h2zM799.5 575.76l-4.64-14.26h9.28z"/><path d="M799.5 579l-6-18.5h12zm-3.26-16.5l3.26 10.03 3.26-10.03z"/><g><use xlink:href="#V" transform="matrix(1,0,0,1,955.5,539.2) translate(0 14.4)"/></g><path d="M1260 580l80 60-80 60-80-60z" stroke="#000" stroke-width="2" fill="#fff"/><g><use xlink:href="#W" transform="matrix(1,0,0,1,1185,585) translate(37.575 47.8)"/><use xlink:href="#X" transform="matrix(1,0,0,1,1185,585) translate(74.525 47.8)"/><use xlink:href="#Y" transform="matrix(1,0,0,1,1185,585) translate(33.05 69.4)"/></g><path d="M1261 548.88v11.37h-2v-9.38h-49.25v-2zm-71.25 0v2h-51.25V522h2v26.88z"/><path d="M1140.5 522.03h-2V521h2zM1260 575.5l-4.64-14.25h9.28z"/><path d="M1260 578.75l-6-18.5h12zm-3.26-16.5l3.26 10.03 3.26-10.03z"/><g><use xlink:href="#Z" transform="matrix(1,0,0,1,1189.75,539.075) translate(0 14.4)"/></g><path d="M1379 560h241v160h-241z" fill="none"/><path d="M1379 720c5.52 0 10-4.48 10-10v-60c0-5.52 4.48-10 10-10-5.52 0-10-4.48-10-10v-60c0-5.52-4.48-10-10-10" stroke="#000" stroke-width="2" fill="none"/><g><use xlink:href="#an" transform="matrix(1,0,0,1,1414,565) translate(0 57)"/><use xlink:href="#ao" transform="matrix(1,0,0,1,1414,565) translate(39.95 57)"/><use xlink:href="#ap" transform="matrix(1,0,0,1,1414,565) translate(0 78.60000000000001)"/><use xlink:href="#aq" transform="matrix(1,0,0,1,1414,565) translate(77.85 78.60000000000001)"/><use xlink:href="#ar" transform="matrix(1,0,0,1,1414,565) translate(0 100.20000000000002)"/><use xlink:href="#as" transform="matrix(1,0,0,1,1414,565) translate(89.85000000000001 100.20000000000002)"/></g><path d="M1020.5 760h479v120h-479z" stroke="#000" stroke-width="2" fill="#fff"/><g><use xlink:href="#at" transform="matrix(1,0,0,1,1025.5,765) translate(1.2249999999999943 37)"/><use xlink:href="#au" transform="matrix(1,0,0,1,1025.5,765) translate(68.175 37)"/><use xlink:href="#av" transform="matrix(1,0,0,1,1025.5,765) translate(135.07500000000002 37)"/><use xlink:href="#P" transform="matrix(1,0,0,1,1025.5,765) translate(230.025 37)"/><use xlink:href="#aw" transform="matrix(1,0,0,1,1025.5,765) translate(265.025 37)"/><use xlink:href="#ax" transform="matrix(1,0,0,1,1025.5,765) translate(315.975 37)"/><use xlink:href="#ay" transform="matrix(1,0,0,1,1025.5,765) translate(350.975 37)"/><use xlink:href="#az" transform="matrix(1,0,0,1,1025.5,765) translate(419.82500000000005 37)"/><use xlink:href="#aA" transform="matrix(1,0,0,1,1025.5,765) translate(434.82500000000005 37)"/><use xlink:href="#aB" transform="matrix(1,0,0,1,1025.5,765) translate(23.724999999999994 58.6)"/><use xlink:href="#aC" transform="matrix(1,0,0,1,1025.5,765) translate(136.47500000000002 58.6)"/><use xlink:href="#aD" transform="matrix(1,0,0,1,1025.5,765) translate(221.475 58.6)"/><use xlink:href="#az" transform="matrix(1,0,0,1,1025.5,765) translate(265.475 58.6)"/><use xlink:href="#aE" transform="matrix(1,0,0,1,1025.5,765) translate(280.475 58.6)"/><use xlink:href="#aF" transform="matrix(1,0,0,1,1025.5,765) translate(365.32500000000005 58.6)"/><use xlink:href="#aG" transform="matrix(1,0,0,1,1025.5,765) translate(430.275 58.6)"/><use xlink:href="#aH" transform="matrix(1,0,0,1,1025.5,765) translate(197.025 80.20000000000002)"/></g><path d="M1261 729v11.5h-2V731h-185.67v-2zm-215.67 0v2H798.5v-29h2v27z"/><path d="M800.5 702.03h-2V701h2zM1260 755.76l-4.64-14.26h9.28z"/><path d="M1260 759l-6-18.5h12zm-3.26-16.5l3.26 10.03 3.26-10.03z"/><g><use xlink:href="#V" transform="matrix(1,0,0,1,1045.3333333333333,719.2) translate(0 14.4)"/></g><path d="M640 760l80 60-80 60-80-60z" stroke="#000" stroke-width="2" fill="#fff"/><g><use xlink:href="#W" transform="matrix(1,0,0,1,565,765) translate(37.575 47.8)"/><use xlink:href="#X" transform="matrix(1,0,0,1,565,765) translate(74.525 47.8)"/><use xlink:href="#Y" transform="matrix(1,0,0,1,565,765) translate(33.05 69.4)"/></g><path d="M709.75 730.88H641v9.37h-2v-11.38h70.75zm90.75 0h-70.75v-2h68.75V702h2z"/><path d="M800.5 702.03h-2V701h2zM640 755.5l-4.64-14.25h9.28z"/><path d="M640 758.75l-6-18.5h12zm-3.26-16.5l3.26 10.03 3.26-10.03z"/><g><use xlink:href="#Z" transform="matrix(1,0,0,1,709.75,719.075) translate(0 14.4)"/></g><path d="M300 740h260v160H300z" fill="none"/><path d="M560 900c-5.52 0-10-4.48-10-10v-60c0-5.52-4.48-10-10-10 5.52 0 10-4.48 10-10v-60c0-5.52 4.48-10 10-10" stroke="#000" stroke-width="2" fill="none"/><g><use xlink:href="#aI" transform="matrix(1,0,0,1,305,745) translate(32.349999999999994 24.6)"/><use xlink:href="#aj" transform="matrix(1,0,0,1,305,745) translate(86.3 24.6)"/><use xlink:href="#aJ" transform="matrix(1,0,0,1,305,745) translate(111.3 24.6)"/><use xlink:href="#aK" transform="matrix(1,0,0,1,305,745) translate(168.1 24.6)"/><use xlink:href="#ak" transform="matrix(1,0,0,1,305,745) translate(42.099999999999994 46.2)"/><use xlink:href="#aL" transform="matrix(1,0,0,1,305,745) translate(86.1 46.2)"/><use xlink:href="#aM" transform="matrix(1,0,0,1,305,745) translate(154.05 46.2)"/><use xlink:href="#aN" transform="matrix(1,0,0,1,305,745) translate(205 46.2)"/><use xlink:href="#aO" transform="matrix(1,0,0,1,305,745) translate(4.150000000000006 67.80000000000001)"/><use xlink:href="#ah" transform="matrix(1,0,0,1,305,745) translate(47.00000000000001 67.80000000000001)"/><use xlink:href="#P" transform="matrix(1,0,0,1,305,745) translate(90 67.80000000000001)"/><use xlink:href="#aP" transform="matrix(1,0,0,1,305,745) translate(125 67.80000000000001)"/><use xlink:href="#g" transform="matrix(1,0,0,1,305,745) translate(169 67.80000000000001)"/><use xlink:href="#aQ" transform="matrix(1,0,0,1,305,745) translate(199 67.80000000000001)"/><use xlink:href="#ak" transform="matrix(1,0,0,1,305,745) translate(17.19999999999999 89.40000000000002)"/><use xlink:href="#al" transform="matrix(1,0,0,1,305,745) translate(61.19999999999999 89.40000000000002)"/><use xlink:href="#aR" transform="matrix(1,0,0,1,305,745) translate(118.1 89.40000000000002)"/><use xlink:href="#aS" transform="matrix(1,0,0,1,305,745) translate(162.05 89.40000000000002)"/><use xlink:href="#aT" transform="matrix(1,0,0,1,305,745) translate(22.25 111.00000000000001)"/><use xlink:href="#aU" transform="matrix(1,0,0,1,305,745) translate(42.25 111.00000000000001)"/><use xlink:href="#aV" transform="matrix(1,0,0,1,305,745) translate(135.1 111.00000000000001)"/><use xlink:href="#aW" transform="matrix(1,0,0,1,305,745) translate(179.1 111.00000000000001)"/><use xlink:href="#aX" transform="matrix(1,0,0,1,305,745) translate(140.05 132.6)"/></g><path d="M1260 960l80 60-80 60-80-60z" stroke="#000" stroke-width="2" fill="#fff"/><g><use xlink:href="#W" transform="matrix(1,0,0,1,1185,965) translate(37.575 47.8)"/><use xlink:href="#X" transform="matrix(1,0,0,1,1185,965) translate(74.525 47.8)"/><use xlink:href="#Y" transform="matrix(1,0,0,1,1185,965) translate(33.05 69.4)"/></g><path d="M1261 940.25h-2V924.8h2zm0-37.05h-2V882h2z"/><path d="M1261 882.03h-2V881h2zM1260 955.5l-4.64-14.25h9.28z"/><path d="M1260 958.75l-6-18.5h12zm-3.26-16.5l3.26 10.03 3.26-10.03z"/><g><use xlink:href="#Z" transform="matrix(1,0,0,1,1250,903.2) translate(0 14.4)"/></g><path d="M1359 940h241v160h-241z" fill="none"/><path d="M1359 1100c5.52 0 10-4.48 10-10v-60c0-5.52 4.48-10 10-10-5.52 0-10-4.48-10-10v-60c0-5.52-4.48-10-10-10" stroke="#000" stroke-width="2" fill="none"/><g><use xlink:href="#aY" transform="matrix(1,0,0,1,1394,945) translate(0 57)"/><use xlink:href="#aZ" transform="matrix(1,0,0,1,1394,945) translate(35.35 57)"/><use xlink:href="#ba" transform="matrix(1,0,0,1,1394,945) translate(94.35 57)"/><use xlink:href="#bb" transform="matrix(1,0,0,1,1394,945) translate(0 78.60000000000001)"/><use xlink:href="#bc" transform="matrix(1,0,0,1,1394,945) translate(42.95 78.60000000000001)"/><use xlink:href="#bd" transform="matrix(1,0,0,1,1394,945) translate(76.95 78.60000000000001)"/><use xlink:href="#be" transform="matrix(1,0,0,1,1394,945) translate(0 100.20000000000002)"/></g><path d="M1031.47 920.88H880.5v19.37h-2v-21.38h152.97zm218.53 0h-190.53v-2H1250zm11-17.68h-2V882h2z"/><path d="M1261 882.03h-2V881h2zM879.5 955.5l-4.64-14.25h9.28z"/><path d="M879.5 958.75l-6-18.5h12zm-3.26-16.5l3.26 10.03 3.26-10.03z"/><g><use xlink:href="#V" transform="matrix(1,0,0,1,1031.4662738214645,909.075) translate(0 14.4)"/></g><path d="M879.5 960l80 60-80 60-80-60z" stroke="#000" stroke-width="2" fill="#fff"/><g><use xlink:href="#W" transform="matrix(1,0,0,1,804.5,965) translate(14.099999999999994 58.6)"/><use xlink:href="#bf" transform="matrix(1,0,0,1,804.5,965) translate(51.05 58.6)"/></g><path d="M560 940h219v160H560z" fill="none"/><path d="M779 1100c-5.52 0-10-4.48-10-10v-60c0-5.52-4.48-10-10-10 5.52 0 10-4.48 10-10v-60c0-5.52 4.48-10 10-10" stroke="#000" stroke-width="2" fill="none"/><g><use xlink:href="#W" transform="matrix(1,0,0,1,565,945) translate(18.19999999999999 35.39999999999999)"/><use xlink:href="#bg" transform="matrix(1,0,0,1,565,945) translate(55.14999999999999 35.39999999999999)"/><use xlink:href="#bh" transform="matrix(1,0,0,1,565,945) translate(145 35.39999999999999)"/><use xlink:href="#bi" transform="matrix(1,0,0,1,565,945) translate(169 35.39999999999999)"/><use xlink:href="#bj" transform="matrix(1,0,0,1,565,945) translate(17.149999999999977 56.99999999999999)"/><use xlink:href="#l" transform="matrix(1,0,0,1,565,945) translate(51.09999999999998 56.99999999999999)"/><use xlink:href="#bk" transform="matrix(1,0,0,1,565,945) translate(71.09999999999998 56.99999999999999)"/><use xlink:href="#bl" transform="matrix(1,0,0,1,565,945) translate(131.04999999999998 56.99999999999999)"/><use xlink:href="#bm" transform="matrix(1,0,0,1,565,945) translate(8.300000000000011 78.6)"/><use xlink:href="#P" transform="matrix(1,0,0,1,565,945) translate(60.15000000000001 78.6)"/><use xlink:href="#l" transform="matrix(1,0,0,1,565,945) translate(95.15 78.6)"/><use xlink:href="#bn" transform="matrix(1,0,0,1,565,945) translate(115.15 78.6)"/><use xlink:href="#bo" transform="matrix(1,0,0,1,565,945) translate(18.149999999999977 100.20000000000002)"/><use xlink:href="#bp" transform="matrix(1,0,0,1,565,945) translate(117.09999999999998 100.20000000000002)"/><use xlink:href="#bq" transform="matrix(1,0,0,1,565,945) translate(154 100.20000000000002)"/><use xlink:href="#br" transform="matrix(1,0,0,1,565,945) translate(111 121.80000000000001)"/></g><defs><path d="M238-95c0 69-44 99-111 99C63 4 22-25 22-93v-155h51v151c-1 38 19 59 55 60 90 1 49-130 58-211h52v153" id="bs"/><path d="M137-138c1-29-70-34-71-4 15 46 118 7 119 86 1 83-164 76-172 9l43-7c4 19 20 25 44 25 33 8 57-30 24-41C81-84 22-81 20-136c-2-80 154-74 161-7" id="bt"/><path d="M185-48c-13 30-37 53-82 52C43 2 14-33 14-96s30-98 90-98c62 0 83 45 84 108H66c0 31 8 55 39 56 18 0 30-7 34-22zm-45-69c5-46-57-63-70-21-2 6-4 13-4 21h74" id="bu"/><g id="a"><use transform="matrix(0.05,0,0,0.05,0,0)" xlink:href="#bs"/><use transform="matrix(0.05,0,0,0.05,12.950000000000001,0)" xlink:href="#bt"/><use transform="matrix(0.05,0,0,0.05,22.950000000000003,0)" xlink:href="#bu"/></g><path d="M136-208V0H84v-208H4v-40h212v40h-80" id="bv"/><path d="M123 10C108 53 80 86 19 72V37c35 8 53-11 59-39L3-190h52l48 148c12-52 28-100 44-148h51" id="bw"/><path d="M135-194c53 0 70 44 70 98 0 56-19 98-73 100-31 1-45-17-59-34 3 33 2 69 2 105H25l-1-265h48c2 10 0 23 3 31 11-24 29-35 60-35zM114-30c33 0 39-31 40-66 0-38-9-64-40-64-56 0-55 130 0 130" id="bx"/><path d="M169-182c-1-43-94-46-97-3 18 66 151 10 154 114 3 95-165 93-204 36-6-8-10-19-12-30l50-8c3 46 112 56 116 5-17-69-150-10-154-114-4-87 153-88 188-35 5 8 8 18 10 28" id="by"/><path d="M190-63c-7 42-38 67-86 67-59 0-84-38-90-98-12-110 154-137 174-36l-49 2c-2-19-15-32-35-32-30 0-35 28-38 64-6 74 65 87 74 30" id="bz"/><path d="M135-150c-39-12-60 13-60 57V0H25l-1-190h47c2 13-1 29 3 40 6-28 27-53 61-41v41" id="bA"/><path d="M25-224v-37h50v37H25zM25 0v-190h50V0H25" id="bB"/><path d="M115-3C79 11 28 4 28-45v-112H4v-33h27l15-45h31v45h36v33H77v99c-1 23 16 31 38 25v30" id="bC"/><g id="b"><use transform="matrix(0.05,0,0,0.05,0,0)" xlink:href="#bv"/><use transform="matrix(0.05,0,0,0.05,9.600000000000001,0)" xlink:href="#bw"/><use transform="matrix(0.05,0,0,0.05,19.6,0)" xlink:href="#bx"/><use transform="matrix(0.05,0,0,0.05,30.55,0)" xlink:href="#bu"/><use transform="matrix(0.05,0,0,0.05,40.550000000000004,0)" xlink:href="#by"/><use transform="matrix(0.05,0,0,0.05,52.550000000000004,0)" xlink:href="#bz"/><use transform="matrix(0.05,0,0,0.05,62.550000000000004,0)" xlink:href="#bA"/><use transform="matrix(0.05,0,0,0.05,69.55000000000001,0)" xlink:href="#bB"/><use transform="matrix(0.05,0,0,0.05,74.55000000000001,0)" xlink:href="#bx"/><use transform="matrix(0.05,0,0,0.05,85.50000000000001,0)" xlink:href="#bC"/></g><path d="M231 0h-52l-39-155L100 0H48L-1-190h46L77-45c9-52 24-97 36-145h53l37 145 32-145h46" id="bD"/><path d="M114-157C55-157 80-60 75 0H25v-261h50l-1 109c12-26 28-41 61-42 86-1 58 113 63 194h-50c-7-57 23-157-34-157" id="bE"/><g id="c"><use transform="matrix(0.05,0,0,0.05,0,0)" xlink:href="#bD"/><use transform="matrix(0.05,0,0,0.05,14,0)" xlink:href="#bB"/><use transform="matrix(0.05,0,0,0.05,19,0)" xlink:href="#bC"/><use transform="matrix(0.05,0,0,0.05,24.95,0)" xlink:href="#bE"/></g><path d="M110-194c64 0 96 36 96 99 0 64-35 99-97 99-61 0-95-36-95-99 0-62 34-99 96-99zm-1 164c35 0 45-28 45-65 0-40-10-65-43-65-34 0-45 26-45 65 0 36 10 65 43 65" id="bF"/><path d="M85 4C-2 5 27-109 22-190h50c7 57-23 150 33 157 60-5 35-97 40-157h50l1 190h-47c-2-12 1-28-3-38-12 25-28 42-61 42" id="bG"/><g id="d"><use transform="matrix(0.05,0,0,0.05,0,0)" xlink:href="#bw"/><use transform="matrix(0.05,0,0,0.05,10,0)" xlink:href="#bF"/><use transform="matrix(0.05,0,0,0.05,20.950000000000003,0)" xlink:href="#bG"/><use transform="matrix(0.05,0,0,0.05,31.900000000000006,0)" xlink:href="#bA"/></g><path d="M240-174c0 40-23 61-54 70L253 0h-59l-57-94H76V0H24v-248c93 4 217-23 216 74zM76-134c48-2 112 12 112-38 0-48-66-32-112-35v73" id="bH"/><path d="M133-34C117-15 103 5 69 4 32 3 11-16 11-54c-1-60 55-63 116-61 1-26-3-47-28-47-18 1-26 9-28 27l-52-2c7-38 36-58 82-57s74 22 75 68l1 82c-1 14 12 18 25 15v27c-30 8-71 5-69-32zm-48 3c29 0 43-24 42-57-32 0-66-3-65 30 0 17 8 27 23 27" id="bI"/><path d="M14-72v-43h91v43H14" id="bJ"/><path d="M24-248c93 1 206-16 204 79-1 75-69 88-152 82V0H24v-248zm52 121c47 0 100 7 100-41 0-47-54-39-100-39v80" id="bK"/><path d="M25-224v-37h50v37H25zM75 22c2 45-34 59-81 51V38c22 5 31-5 31-27v-201h50V22" id="bL"/><g id="e"><use transform="matrix(0.05,0,0,0.05,0,0)" xlink:href="#bH"/><use transform="matrix(0.05,0,0,0.05,12.950000000000001,0)" xlink:href="#bu"/><use transform="matrix(0.05,0,0,0.05,22.950000000000003,0)" xlink:href="#bI"/><use transform="matrix(0.05,0,0,0.05,32.95,0)" xlink:href="#bz"/><use transform="matrix(0.05,0,0,0.05,42.95,0)" xlink:href="#bC"/><use transform="matrix(0.05,0,0,0.05,48.900000000000006,0)" xlink:href="#bJ"/><use transform="matrix(0.05,0,0,0.05,54.85,0)" xlink:href="#bK"/><use transform="matrix(0.05,0,0,0.05,66.85000000000001,0)" xlink:href="#bA"/><use transform="matrix(0.05,0,0,0.05,73.85000000000001,0)" xlink:href="#bF"/><use transform="matrix(0.05,0,0,0.05,84.80000000000001,0)" xlink:href="#bL"/><use transform="matrix(0.05,0,0,0.05,89.80000000000001,0)" xlink:href="#bu"/><use transform="matrix(0.05,0,0,0.05,99.80000000000001,0)" xlink:href="#bz"/><use transform="matrix(0.05,0,0,0.05,109.80000000000001,0)" xlink:href="#bC"/></g><path d="M30-248c118-7 216 8 213 122C240-48 200 0 122 0H30v-248zM63-27c89 8 146-16 146-99s-60-101-146-95v194" id="bM"/><path d="M100-194c62-1 85 37 85 99 1 63-27 99-86 99S16-35 15-95c0-66 28-99 85-99zM99-20c44 1 53-31 53-75 0-43-8-75-51-75s-53 32-53 75 10 74 51 75" id="bN"/><path d="M100-194c63 0 86 42 84 106H49c0 40 14 67 53 68 26 1 43-12 49-29l28 8c-11 28-37 45-77 45C44 4 14-33 15-96c1-61 26-98 85-98zm52 81c6-60-76-77-97-28-3 7-6 17-6 28h103" id="bO"/><path d="M135-143c-3-34-86-38-87 0 15 53 115 12 119 90S17 21 10-45l28-5c4 36 97 45 98 0-10-56-113-15-118-90-4-57 82-63 122-42 12 7 21 19 24 35" id="bP"/><g id="f"><use transform="matrix(0.05,0,0,0.05,0,0)" xlink:href="#bM"/><use transform="matrix(0.05,0,0,0.05,12.950000000000001,0)" xlink:href="#bN"/><use transform="matrix(0.05,0,0,0.05,22.950000000000003,0)" xlink:href="#bO"/><use transform="matrix(0.05,0,0,0.05,32.95,0)" xlink:href="#bP"/></g><path d="M59-47c-2 24 18 29 38 22v24C64 9 27 4 27-40v-127H5v-23h24l9-43h21v43h35v23H59v120" id="bQ"/><path d="M106-169C34-169 62-67 57 0H25v-261h32l-1 103c12-21 28-36 61-36 89 0 53 116 60 194h-32v-121c2-32-8-49-39-48" id="bR"/><g id="g"><use transform="matrix(0.05,0,0,0.05,0,0)" xlink:href="#bQ"/><use transform="matrix(0.05,0,0,0.05,5,0)" xlink:href="#bR"/><use transform="matrix(0.05,0,0,0.05,15,0)" xlink:href="#bO"/></g><path d="M141-36C126-15 110 5 73 4 37 3 15-17 15-53c-1-64 63-63 125-63 3-35-9-54-41-54-24 1-41 7-42 31l-33-3c5-37 33-52 76-52 45 0 72 20 72 64v82c-1 20 7 32 28 27v20c-31 9-61-2-59-35zM48-53c0 20 12 33 32 33 41-3 63-29 60-74-43 2-92-5-92 41" id="bS"/><path d="M210-169c-67 3-38 105-44 169h-31v-121c0-29-5-50-35-48C34-165 62-65 56 0H25l-1-190h30c1 10-1 24 2 32 10-44 99-50 107 0 11-21 27-35 58-36 85-2 47 119 55 194h-31v-121c0-29-5-49-35-48" id="bT"/><g id="h"><use transform="matrix(0.05,0,0,0.05,0,0)" xlink:href="#bQ"/><use transform="matrix(0.05,0,0,0.05,5,0)" xlink:href="#bO"/><use transform="matrix(0.05,0,0,0.05,15,0)" xlink:href="#bS"/><use transform="matrix(0.05,0,0,0.05,25,0)" xlink:href="#bT"/></g><g id="i"><use transform="matrix(0.05,0,0,0.05,0,0)" xlink:href="#bR"/><use transform="matrix(0.05,0,0,0.05,10,0)" xlink:href="#bS"/><use transform="matrix(0.05,0,0,0.05,20,0)" xlink:href="#bP"/></g><path d="M114-163C36-179 61-72 57 0H25l-1-190h30c1 12-1 29 2 39 6-27 23-49 58-41v29" id="bU"/><path d="M145-31C134-9 116 4 85 4 32 4 16-35 15-94c0-59 17-99 70-100 32-1 48 14 60 33 0-11-1-24 2-32h30l-1 268h-32zM93-21c41 0 51-33 51-76s-8-73-50-73c-40 0-46 35-46 75s5 74 45 74" id="bV"/><path d="M84 4C-5 8 30-112 23-190h32v120c0 31 7 50 39 49 72-2 45-101 50-169h31l1 190h-30c-1-10 1-25-2-33-11 22-28 36-60 37" id="bW"/><path d="M24-231v-30h32v30H24zM24 0v-190h32V0H24" id="bX"/><path d="M85-194c31 0 48 13 60 33l-1-100h32l1 261h-30c-2-10 0-23-3-31C134-8 116 4 85 4 32 4 16-35 15-94c0-66 23-100 70-100zm9 24c-40 0-46 34-46 75 0 40 6 74 45 74 42 0 51-32 51-76 0-42-9-74-50-73" id="bY"/><g id="j"><use transform="matrix(0.05,0,0,0.05,0,0)" xlink:href="#bU"/><use transform="matrix(0.05,0,0,0.05,5.95,0)" xlink:href="#bO"/><use transform="matrix(0.05,0,0,0.05,15.949999999999998,0)" xlink:href="#bV"/><use transform="matrix(0.05,0,0,0.05,25.950000000000003,0)" xlink:href="#bW"/><use transform="matrix(0.05,0,0,0.05,35.95,0)" xlink:href="#bX"/><use transform="matrix(0.05,0,0,0.05,39.900000000000006,0)" xlink:href="#bU"/><use transform="matrix(0.05,0,0,0.05,45.85000000000001,0)" xlink:href="#bO"/><use transform="matrix(0.05,0,0,0.05,55.85,0)" xlink:href="#bY"/></g><g id="k"><use transform="matrix(0.05,0,0,0.05,0,0)" xlink:href="#bQ"/><use transform="matrix(0.05,0,0,0.05,5,0)" xlink:href="#bX"/><use transform="matrix(0.05,0,0,0.05,8.95,0)" xlink:href="#bT"/><use transform="matrix(0.05,0,0,0.05,23.9,0)" xlink:href="#bO"/></g><g id="l"><use transform="matrix(0.05,0,0,0.05,0,0)" xlink:href="#bQ"/><use transform="matrix(0.05,0,0,0.05,5,0)" xlink:href="#bN"/></g><path d="M24 0v-261h32V0H24" id="bZ"/><path d="M117-194c89-4 53 116 60 194h-32v-121c0-31-8-49-39-48C34-167 62-67 57 0H25l-1-190h30c1 10-1 24 2 32 11-22 29-35 61-36" id="ca"/><g id="m"><use transform="matrix(0.05,0,0,0.05,0,0)" xlink:href="#bZ"/><use transform="matrix(0.05,0,0,0.05,3.95,0)" xlink:href="#bO"/><use transform="matrix(0.05,0,0,0.05,13.949999999999998,0)" xlink:href="#bS"/><use transform="matrix(0.05,0,0,0.05,23.95,0)" xlink:href="#bU"/><use transform="matrix(0.05,0,0,0.05,29.899999999999995,0)" xlink:href="#ca"/></g><path d="M127-220V0H93v-220H8v-28h204v28h-85" id="cb"/><path d="M179-190L93 31C79 59 56 82 12 73V49c39 6 53-20 64-50L1-190h34L92-34l54-156h33" id="cc"/><path d="M115-194c55 1 70 41 70 98S169 2 115 4C84 4 66-9 55-30l1 105H24l-1-265h31l2 30c10-21 28-34 59-34zm-8 174c40 0 45-34 45-75s-6-73-45-74c-42 0-51 32-51 76 0 43 10 73 51 73" id="cd"/><path d="M185-189c-5-48-123-54-124 2 14 75 158 14 163 119 3 78-121 87-175 55-17-10-28-26-33-46l33-7c5 56 141 63 141-1 0-78-155-14-162-118-5-82 145-84 179-34 5 7 8 16 11 25" id="ce"/><path d="M96-169c-40 0-48 33-48 73s9 75 48 75c24 0 41-14 43-38l32 2c-6 37-31 61-74 61-59 0-76-41-82-99-10-93 101-131 147-64 4 7 5 14 7 22l-32 3c-4-21-16-35-41-35" id="cf"/><path d="M103-251c84 0 111 97 45 133-19 10-37 24-39 52H78c0-63 77-55 77-114 0-30-21-42-52-43-32 0-53 17-56 46l-32-2c7-45 34-72 88-72zM77 0v-35h34V0H77" id="cg"/><g id="n"><use transform="matrix(0.05,0,0,0.05,0,0)" xlink:href="#cb"/><use transform="matrix(0.05,0,0,0.05,9.950000000000001,0)" xlink:href="#cc"/><use transform="matrix(0.05,0,0,0.05,18.950000000000003,0)" xlink:href="#cd"/><use transform="matrix(0.05,0,0,0.05,28.950000000000003,0)" xlink:href="#bO"/><use transform="matrix(0.05,0,0,0.05,38.95,0)" xlink:href="#ce"/><use transform="matrix(0.05,0,0,0.05,50.95,0)" xlink:href="#cf"/><use transform="matrix(0.05,0,0,0.05,59.95,0)" xlink:href="#bU"/><use transform="matrix(0.05,0,0,0.05,65.9,0)" xlink:href="#bX"/><use transform="matrix(0.05,0,0,0.05,69.85000000000001,0)" xlink:href="#cd"/><use transform="matrix(0.05,0,0,0.05,79.85000000000001,0)" xlink:href="#bQ"/><use transform="matrix(0.05,0,0,0.05,84.85000000000001,0)" xlink:href="#cg"/></g><g id="o"><use transform="matrix(0.05,0,0,0.05,0,0)" xlink:href="#cb"/><use transform="matrix(0.05,0,0,0.05,10.950000000000001,0)" xlink:href="#bR"/><use transform="matrix(0.05,0,0,0.05,20.950000000000003,0)" xlink:href="#bX"/><use transform="matrix(0.05,0,0,0.05,24.900000000000002,0)" xlink:href="#bP"/></g><g id="p"><use transform="matrix(0.05,0,0,0.05,0,0)" xlink:href="#bX"/><use transform="matrix(0.05,0,0,0.05,3.95,0)" xlink:href="#ca"/><use transform="matrix(0.05,0,0,0.05,13.949999999999998,0)" xlink:href="#cf"/><use transform="matrix(0.05,0,0,0.05,22.95,0)" xlink:href="#bZ"/><use transform="matrix(0.05,0,0,0.05,26.899999999999995,0)" xlink:href="#bW"/><use transform="matrix(0.05,0,0,0.05,36.9,0)" xlink:href="#bY"/><use transform="matrix(0.05,0,0,0.05,46.9,0)" xlink:href="#bO"/><use transform="matrix(0.05,0,0,0.05,56.900000000000006,0)" xlink:href="#bP"/></g><path d="M141 0L90-78 38 0H4l68-98-65-92h35l48 74 47-74h35l-64 92 68 98h-35" id="ch"/><path d="M68-38c1 34 0 65-14 84H32c9-13 17-26 17-46H33v-38h35" id="ci"/><g id="q"><use transform="matrix(0.05,0,0,0.05,0,0)" xlink:href="#bP"/><use transform="matrix(0.05,0,0,0.05,9,0)" xlink:href="#cc"/><use transform="matrix(0.05,0,0,0.05,18,0)" xlink:href="#ca"/><use transform="matrix(0.05,0,0,0.05,28,0)" xlink:href="#bQ"/><use transform="matrix(0.05,0,0,0.05,33,0)" xlink:href="#bS"/><use transform="matrix(0.05,0,0,0.05,43,0)" xlink:href="#ch"/><use transform="matrix(0.05,0,0,0.05,52,0)" xlink:href="#ci"/></g><path d="M177-190C167-65 218 103 67 71c-23-6-38-20-44-43l32-5c15 47 100 32 89-28v-30C133-14 115 1 83 1 29 1 15-40 15-95c0-56 16-97 71-98 29-1 48 16 59 35 1-10 0-23 2-32h30zM94-22c36 0 50-32 50-73 0-42-14-75-50-75-39 0-46 34-46 75s6 73 46 73" id="cj"/><g id="r"><use transform="matrix(0.05,0,0,0.05,0,0)" xlink:href="#ca"/><use transform="matrix(0.05,0,0,0.05,10,0)" xlink:href="#bS"/><use transform="matrix(0.05,0,0,0.05,20,0)" xlink:href="#bT"/><use transform="matrix(0.05,0,0,0.05,34.95,0)" xlink:href="#bX"/><use transform="matrix(0.05,0,0,0.05,38.900000000000006,0)" xlink:href="#ca"/><use transform="matrix(0.05,0,0,0.05,48.900000000000006,0)" xlink:href="#cj"/></g><path d="M108 0H70L1-190h34L89-25l56-165h34" id="ck"/><g id="s"><use transform="matrix(0.05,0,0,0.05,0,0)" xlink:href="#cf"/><use transform="matrix(0.05,0,0,0.05,9,0)" xlink:href="#bN"/><use transform="matrix(0.05,0,0,0.05,19,0)" xlink:href="#ca"/><use transform="matrix(0.05,0,0,0.05,29,0)" xlink:href="#ck"/><use transform="matrix(0.05,0,0,0.05,38,0)" xlink:href="#bO"/><use transform="matrix(0.05,0,0,0.05,48,0)" xlink:href="#ca"/><use transform="matrix(0.05,0,0,0.05,58,0)" xlink:href="#bQ"/><use transform="matrix(0.05,0,0,0.05,63,0)" xlink:href="#bX"/><use transform="matrix(0.05,0,0,0.05,66.95,0)" xlink:href="#bN"/><use transform="matrix(0.05,0,0,0.05,76.95,0)" xlink:href="#ca"/><use transform="matrix(0.05,0,0,0.05,86.95,0)" xlink:href="#bP"/><use transform="matrix(0.05,0,0,0.05,95.95,0)" xlink:href="#ci"/></g><path d="M115-194c53 0 69 39 70 98 0 66-23 100-70 100C84 3 66-7 56-30L54 0H23l1-261h32v101c10-23 28-34 59-34zm-8 174c40 0 45-34 45-75 0-40-5-75-45-74-42 0-51 32-51 76 0 43 10 73 51 73" id="cl"/><g id="t"><use transform="matrix(0.05,0,0,0.05,0,0)" xlink:href="#cl"/><use transform="matrix(0.05,0,0,0.05,10,0)" xlink:href="#bO"/><use transform="matrix(0.05,0,0,0.05,20,0)" xlink:href="#bP"/><use transform="matrix(0.05,0,0,0.05,29,0)" xlink:href="#bQ"/></g><g id="u"><use transform="matrix(0.05,0,0,0.05,0,0)" xlink:href="#cd"/><use transform="matrix(0.05,0,0,0.05,10,0)" xlink:href="#bU"/><use transform="matrix(0.05,0,0,0.05,15.949999999999998,0)" xlink:href="#bS"/><use transform="matrix(0.05,0,0,0.05,25.950000000000003,0)" xlink:href="#cf"/><use transform="matrix(0.05,0,0,0.05,34.95,0)" xlink:href="#bQ"/><use transform="matrix(0.05,0,0,0.05,39.95,0)" xlink:href="#bX"/><use transform="matrix(0.05,0,0,0.05,43.900000000000006,0)" xlink:href="#cf"/><use transform="matrix(0.05,0,0,0.05,52.900000000000006,0)" xlink:href="#bO"/><use transform="matrix(0.05,0,0,0.05,62.900000000000006,0)" xlink:href="#bP"/><use transform="matrix(0.05,0,0,0.05,71.9,0)" xlink:href="#ci"/></g><g id="v"><use transform="matrix(0.05,0,0,0.05,0,0)" xlink:href="#bZ"/><use transform="matrix(0.05,0,0,0.05,3.95,0)" xlink:href="#bX"/><use transform="matrix(0.05,0,0,0.05,7.9,0)" xlink:href="#ca"/><use transform="matrix(0.05,0,0,0.05,17.9,0)" xlink:href="#bQ"/><use transform="matrix(0.05,0,0,0.05,22.9,0)" xlink:href="#bX"/><use transform="matrix(0.05,0,0,0.05,26.849999999999994,0)" xlink:href="#ca"/><use transform="matrix(0.05,0,0,0.05,36.849999999999994,0)" xlink:href="#cj"/><use transform="matrix(0.05,0,0,0.05,46.849999999999994,0)" xlink:href="#ci"/></g><g id="w"><use transform="matrix(0.05,0,0,0.05,0,0)" xlink:href="#cf"/><use transform="matrix(0.05,0,0,0.05,9,0)" xlink:href="#bN"/><use transform="matrix(0.05,0,0,0.05,19,0)" xlink:href="#bY"/><use transform="matrix(0.05,0,0,0.05,29,0)" xlink:href="#bX"/><use transform="matrix(0.05,0,0,0.05,32.95,0)" xlink:href="#ca"/><use transform="matrix(0.05,0,0,0.05,42.95,0)" xlink:href="#cj"/></g><path d="M87 75C49 33 22-17 22-94c0-76 28-126 65-167h31c-38 41-64 92-64 168S80 34 118 75H87" id="cm"/><path d="M33 0v-38h34V0H33" id="cn"/><g id="x"><use transform="matrix(0.05,0,0,0.05,0,0)" xlink:href="#cm"/><use transform="matrix(0.05,0,0,0.05,5.95,0)" xlink:href="#bO"/><use transform="matrix(0.05,0,0,0.05,15.949999999999998,0)" xlink:href="#cn"/><use transform="matrix(0.05,0,0,0.05,20.95,0)" xlink:href="#cj"/><use transform="matrix(0.05,0,0,0.05,30.950000000000003,0)" xlink:href="#cn"/></g><path d="M140-251c81 0 123 46 123 126C263-46 219 4 140 4 59 4 17-45 17-125s42-126 123-126zm0 227c63 0 89-41 89-101s-29-99-89-99c-61 0-89 39-89 99S79-25 140-24" id="co"/><path d="M30 0v-248h33v221h125V0H30" id="cp"/><path d="M33 0v-248h34V0H33" id="cq"/><g id="y"><use transform="matrix(0.05,0,0,0.05,0,0)" xlink:href="#ce"/><use transform="matrix(0.05,0,0,0.05,12,0)" xlink:href="#co"/><use transform="matrix(0.05,0,0,0.05,26,0)" xlink:href="#cp"/><use transform="matrix(0.05,0,0,0.05,36,0)" xlink:href="#cq"/><use transform="matrix(0.05,0,0,0.05,41,0)" xlink:href="#bM"/></g><g id="z"><use transform="matrix(0.05,0,0,0.05,0,0)" xlink:href="#cd"/><use transform="matrix(0.05,0,0,0.05,10,0)" xlink:href="#bU"/><use transform="matrix(0.05,0,0,0.05,15.949999999999998,0)" xlink:href="#bX"/><use transform="matrix(0.05,0,0,0.05,19.9,0)" xlink:href="#ca"/><use transform="matrix(0.05,0,0,0.05,29.899999999999995,0)" xlink:href="#cf"/><use transform="matrix(0.05,0,0,0.05,38.9,0)" xlink:href="#bX"/><use transform="matrix(0.05,0,0,0.05,42.85,0)" xlink:href="#cd"/><use transform="matrix(0.05,0,0,0.05,52.85,0)" xlink:href="#bZ"/><use transform="matrix(0.05,0,0,0.05,56.800000000000004,0)" xlink:href="#bO"/></g><path d="M33-261c38 41 65 92 65 168S71 34 33 75H2C39 34 66-17 66-93S39-220 2-261h31" id="cr"/><g id="A"><use transform="matrix(0.05,0,0,0.05,0,0)" xlink:href="#cr"/><use transform="matrix(0.05,0,0,0.05,5.95,0)" xlink:href="#ci"/></g><g id="B"><use transform="matrix(0.05,0,0,0.05,0,0)" xlink:href="#bO"/><use transform="matrix(0.05,0,0,0.05,10,0)" xlink:href="#bQ"/><use transform="matrix(0.05,0,0,0.05,15,0)" xlink:href="#cf"/><use transform="matrix(0.05,0,0,0.05,24,0)" xlink:href="#cn"/></g><g id="C"><use transform="matrix(0.05,0,0,0.05,0,0)" xlink:href="#bS"/><use transform="matrix(0.05,0,0,0.05,10,0)" xlink:href="#ca"/><use transform="matrix(0.05,0,0,0.05,20,0)" xlink:href="#bY"/></g><g id="D"><use transform="matrix(0.05,0,0,0.05,0,0)" xlink:href="#bQ"/><use transform="matrix(0.05,0,0,0.05,5,0)" xlink:href="#bX"/><use transform="matrix(0.05,0,0,0.05,8.95,0)" xlink:href="#bT"/><use transform="matrix(0.05,0,0,0.05,23.9,0)" xlink:href="#bO"/></g><path d="M101-234c-31-9-42 10-38 44h38v23H63V0H32v-167H5v-23h27c-7-52 17-82 69-68v24" id="cs"/><g id="E"><use transform="matrix(0.05,0,0,0.05,0,0)" xlink:href="#cs"/><use transform="matrix(0.05,0,0,0.05,5,0)" xlink:href="#bN"/><use transform="matrix(0.05,0,0,0.05,15,0)" xlink:href="#bU"/></g><g id="F"><use transform="matrix(0.05,0,0,0.05,0,0)" xlink:href="#bU"/><use transform="matrix(0.05,0,0,0.05,5.95,0)" xlink:href="#bO"/><use transform="matrix(0.05,0,0,0.05,15.949999999999998,0)" xlink:href="#cs"/><use transform="matrix(0.05,0,0,0.05,20.95,0)" xlink:href="#bS"/><use transform="matrix(0.05,0,0,0.05,30.950000000000003,0)" xlink:href="#cf"/><use transform="matrix(0.05,0,0,0.05,39.95,0)" xlink:href="#bQ"/><use transform="matrix(0.05,0,0,0.05,44.95,0)" xlink:href="#bN"/><use transform="matrix(0.05,0,0,0.05,54.95,0)" xlink:href="#bU"/><use transform="matrix(0.05,0,0,0.05,60.900000000000006,0)" xlink:href="#bX"/><use transform="matrix(0.05,0,0,0.05,64.85000000000001,0)" xlink:href="#ca"/><use transform="matrix(0.05,0,0,0.05,74.85000000000001,0)" xlink:href="#cj"/></g><g id="G"><use transform="matrix(0.05,0,0,0.05,0,0)" xlink:href="#bS"/><use transform="matrix(0.05,0,0,0.05,10,0)" xlink:href="#bZ"/><use transform="matrix(0.05,0,0,0.05,13.949999999999998,0)" xlink:href="#bU"/><use transform="matrix(0.05,0,0,0.05,19.9,0)" xlink:href="#bO"/><use transform="matrix(0.05,0,0,0.05,29.899999999999995,0)" xlink:href="#bS"/><use transform="matrix(0.05,0,0,0.05,39.9,0)" xlink:href="#bY"/><use transform="matrix(0.05,0,0,0.05,49.9,0)" xlink:href="#cc"/></g><path d="M206 0h-36l-40-164L89 0H53L-1-190h32L70-26l43-164h34l41 164 42-164h31" id="ct"/><g id="H"><use transform="matrix(0.05,0,0,0.05,0,0)" xlink:href="#ct"/><use transform="matrix(0.05,0,0,0.05,12.950000000000001,0)" xlink:href="#bU"/><use transform="matrix(0.05,0,0,0.05,18.900000000000002,0)" xlink:href="#bX"/><use transform="matrix(0.05,0,0,0.05,22.85,0)" xlink:href="#bQ"/><use transform="matrix(0.05,0,0,0.05,27.85,0)" xlink:href="#bQ"/><use transform="matrix(0.05,0,0,0.05,32.85,0)" xlink:href="#bO"/><use transform="matrix(0.05,0,0,0.05,42.85,0)" xlink:href="#ca"/></g><path d="M153-248C145-148 188 4 80 4 36 3 13-21 6-62l32-5c4 25 16 42 43 43 27 0 39-20 39-49v-147H72v-28h81" id="cu"/><g id="I"><use transform="matrix(0.05,0,0,0.05,0,0)" xlink:href="#cu"/><use transform="matrix(0.05,0,0,0.05,9,0)" xlink:href="#ce"/></g><g id="J"><use transform="matrix(0.05,0,0,0.05,0,0)" xlink:href="#cf"/><use transform="matrix(0.05,0,0,0.05,9,0)" xlink:href="#bN"/><use transform="matrix(0.05,0,0,0.05,19,0)" xlink:href="#bY"/><use transform="matrix(0.05,0,0,0.05,29,0)" xlink:href="#bO"/></g><path d="M205 0l-28-72H64L36 0H1l101-248h38L239 0h-34zm-38-99l-47-123c-12 45-31 82-46 123h93" id="cv"/><g id="K"><use transform="matrix(0.05,0,0,0.05,0,0)" xlink:href="#cv"/><use transform="matrix(0.05,0,0,0.05,12,0)" xlink:href="#cd"/><use transform="matrix(0.05,0,0,0.05,22,0)" xlink:href="#cd"/></g><g id="L"><use transform="matrix(0.05,0,0,0.05,0,0)" xlink:href="#ct"/><use transform="matrix(0.05,0,0,0.05,12.950000000000001,0)" xlink:href="#bX"/><use transform="matrix(0.05,0,0,0.05,16.900000000000002,0)" xlink:href="#bZ"/><use transform="matrix(0.05,0,0,0.05,20.85,0)" xlink:href="#bZ"/></g><g id="M"><use transform="matrix(0.05,0,0,0.05,0,0)" xlink:href="#cj"/><use transform="matrix(0.05,0,0,0.05,10,0)" xlink:href="#bU"/><use transform="matrix(0.05,0,0,0.05,15.949999999999998,0)" xlink:href="#bN"/><use transform="matrix(0.05,0,0,0.05,25.950000000000003,0)" xlink:href="#ct"/></g><g id="N"><use transform="matrix(0.05,0,0,0.05,0,0)" xlink:href="#bN"/><use transform="matrix(0.05,0,0,0.05,10,0)" xlink:href="#ck"/><use transform="matrix(0.05,0,0,0.05,19,0)" xlink:href="#bO"/><use transform="matrix(0.05,0,0,0.05,29,0)" xlink:href="#bU"/></g><g id="O"><use transform="matrix(0.05,0,0,0.05,0,0)" xlink:href="#cc"/><use transform="matrix(0.05,0,0,0.05,9,0)" xlink:href="#bO"/><use transform="matrix(0.05,0,0,0.05,19,0)" xlink:href="#bS"/><use transform="matrix(0.05,0,0,0.05,29,0)" xlink:href="#bU"/><use transform="matrix(0.05,0,0,0.05,34.95,0)" xlink:href="#bP"/></g><g id="P"><use transform="matrix(0.05,0,0,0.05,0,0)" xlink:href="#bS"/><use transform="matrix(0.05,0,0,0.05,10,0)" xlink:href="#ca"/><use transform="matrix(0.05,0,0,0.05,20,0)" xlink:href="#bY"/></g><g id="Q"><use transform="matrix(0.05,0,0,0.05,0,0)" xlink:href="#bT"/><use transform="matrix(0.05,0,0,0.05,14.950000000000001,0)" xlink:href="#bS"/><use transform="matrix(0.05,0,0,0.05,24.950000000000003,0)" xlink:href="#ca"/><use transform="matrix(0.05,0,0,0.05,34.95,0)" xlink:href="#cc"/></g><g id="R"><use transform="matrix(0.05,0,0,0.05,0,0)" xlink:href="#cd"/><use transform="matrix(0.05,0,0,0.05,10,0)" xlink:href="#bO"/><use transform="matrix(0.05,0,0,0.05,20,0)" xlink:href="#bN"/><use transform="matrix(0.05,0,0,0.05,30,0)" xlink:href="#cd"/><use transform="matrix(0.05,0,0,0.05,40,0)" xlink:href="#bZ"/><use transform="matrix(0.05,0,0,0.05,43.95,0)" xlink:href="#bO"/></g><g id="S"><use transform="matrix(0.05,0,0,0.05,0,0)" xlink:href="#bQ"/><use transform="matrix(0.05,0,0,0.05,5,0)" xlink:href="#bN"/><use transform="matrix(0.05,0,0,0.05,15,0)" xlink:href="#bW"/><use transform="matrix(0.05,0,0,0.05,25,0)" xlink:href="#cf"/><use transform="matrix(0.05,0,0,0.05,34,0)" xlink:href="#bR"/></g><g id="T"><use transform="matrix(0.05,0,0,0.05,0,0)" xlink:href="#bX"/><use transform="matrix(0.05,0,0,0.05,3.95,0)" xlink:href="#bQ"/></g><g id="U"><use transform="matrix(0.05,0,0,0.05,0,0)" xlink:href="#bQ"/><use transform="matrix(0.05,0,0,0.05,5,0)" xlink:href="#bX"/><use transform="matrix(0.05,0,0,0.05,8.95,0)" xlink:href="#bT"/><use transform="matrix(0.05,0,0,0.05,23.9,0)" xlink:href="#bO"/></g><g id="V"><use transform="matrix(0.05,0,0,0.05,0,0)" xlink:href="#cc"/><use transform="matrix(0.05,0,0,0.05,9,0)" xlink:href="#bO"/><use transform="matrix(0.05,0,0,0.05,19,0)" xlink:href="#bP"/></g><path d="M232-93c-1 65-40 97-104 97C67 4 28-28 28-90v-158h33c8 89-33 224 67 224 102 0 64-133 71-224h33v155" id="cw"/><g id="W"><use transform="matrix(0.05,0,0,0.05,0,0)" xlink:href="#cw"/><use transform="matrix(0.05,0,0,0.05,12.950000000000001,0)" xlink:href="#bP"/><use transform="matrix(0.05,0,0,0.05,21.950000000000003,0)" xlink:href="#bO"/></g><g id="X"><use transform="matrix(0.05,0,0,0.05,0,0)" xlink:href="#cd"/><use transform="matrix(0.05,0,0,0.05,10,0)" xlink:href="#bZ"/><use transform="matrix(0.05,0,0,0.05,13.949999999999998,0)" xlink:href="#bS"/><use transform="matrix(0.05,0,0,0.05,23.95,0)" xlink:href="#bX"/><use transform="matrix(0.05,0,0,0.05,27.899999999999995,0)" xlink:href="#ca"/></g><g id="Y"><use transform="matrix(0.05,0,0,0.05,0,0)" xlink:href="#cu"/><use transform="matrix(0.05,0,0,0.05,9,0)" xlink:href="#bS"/><use transform="matrix(0.05,0,0,0.05,19,0)" xlink:href="#ck"/><use transform="matrix(0.05,0,0,0.05,28,0)" xlink:href="#bS"/><use transform="matrix(0.05,0,0,0.05,38,0)" xlink:href="#ce"/><use transform="matrix(0.05,0,0,0.05,50,0)" xlink:href="#cf"/><use transform="matrix(0.05,0,0,0.05,59,0)" xlink:href="#bU"/><use transform="matrix(0.05,0,0,0.05,64.95,0)" xlink:href="#bX"/><use transform="matrix(0.05,0,0,0.05,68.9,0)" xlink:href="#cd"/><use transform="matrix(0.05,0,0,0.05,78.9,0)" xlink:href="#bQ"/></g><g id="Z"><use transform="matrix(0.05,0,0,0.05,0,0)" xlink:href="#ca"/><use transform="matrix(0.05,0,0,0.05,10,0)" xlink:href="#bN"/></g><path d="M30 0v-248h187v28H63v79h144v27H63v87h162V0H30" id="cx"/><g id="aa"><use transform="matrix(0.05,0,0,0.05,0,0)" xlink:href="#cx"/><use transform="matrix(0.05,0,0,0.05,12,0)" xlink:href="#ca"/><use transform="matrix(0.05,0,0,0.05,22,0)" xlink:href="#bS"/><use transform="matrix(0.05,0,0,0.05,32,0)" xlink:href="#cl"/><use transform="matrix(0.05,0,0,0.05,42,0)" xlink:href="#bZ"/><use transform="matrix(0.05,0,0,0.05,45.95,0)" xlink:href="#bO"/><use transform="matrix(0.05,0,0,0.05,55.95,0)" xlink:href="#bP"/></g><g id="ab"><use transform="matrix(0.05,0,0,0.05,0,0)" xlink:href="#bU"/><use transform="matrix(0.05,0,0,0.05,5.95,0)" xlink:href="#bS"/><use transform="matrix(0.05,0,0,0.05,15.949999999999998,0)" xlink:href="#cd"/><use transform="matrix(0.05,0,0,0.05,25.950000000000003,0)" xlink:href="#bX"/><use transform="matrix(0.05,0,0,0.05,29.899999999999995,0)" xlink:href="#bY"/></g><g id="ac"><use transform="matrix(0.05,0,0,0.05,0,0)" xlink:href="#cd"/><use transform="matrix(0.05,0,0,0.05,10,0)" xlink:href="#bU"/><use transform="matrix(0.05,0,0,0.05,15.949999999999998,0)" xlink:href="#bN"/><use transform="matrix(0.05,0,0,0.05,25.950000000000003,0)" xlink:href="#bQ"/><use transform="matrix(0.05,0,0,0.05,30.950000000000003,0)" xlink:href="#bN"/><use transform="matrix(0.05,0,0,0.05,40.95,0)" xlink:href="#cc"/><use transform="matrix(0.05,0,0,0.05,49.95,0)" xlink:href="#cd"/><use transform="matrix(0.05,0,0,0.05,59.95,0)" xlink:href="#bX"/><use transform="matrix(0.05,0,0,0.05,63.900000000000006,0)" xlink:href="#ca"/><use transform="matrix(0.05,0,0,0.05,73.9,0)" xlink:href="#cj"/></g><g id="ad"><use transform="matrix(0.05,0,0,0.05,0,0)" xlink:href="#bS"/><use transform="matrix(0.05,0,0,0.05,10,0)" xlink:href="#ca"/><use transform="matrix(0.05,0,0,0.05,20,0)" xlink:href="#bY"/></g><g id="ae"><use transform="matrix(0.05,0,0,0.05,0,0)" xlink:href="#bP"/><use transform="matrix(0.05,0,0,0.05,9,0)" xlink:href="#bS"/><use transform="matrix(0.05,0,0,0.05,19,0)" xlink:href="#ck"/><use transform="matrix(0.05,0,0,0.05,28,0)" xlink:href="#bO"/><use transform="matrix(0.05,0,0,0.05,38,0)" xlink:href="#bP"/></g><g id="af"><use transform="matrix(0.05,0,0,0.05,0,0)" xlink:href="#cb"/><use transform="matrix(0.05,0,0,0.05,8.950000000000001,0)" xlink:href="#bO"/><use transform="matrix(0.05,0,0,0.05,18.950000000000003,0)" xlink:href="#bS"/><use transform="matrix(0.05,0,0,0.05,28.950000000000003,0)" xlink:href="#bT"/></g><g id="ag"><use transform="matrix(0.05,0,0,0.05,0,0)" xlink:href="#ct"/><use transform="matrix(0.05,0,0,0.05,12.950000000000001,0)" xlink:href="#bU"/><use transform="matrix(0.05,0,0,0.05,18.900000000000002,0)" xlink:href="#bX"/><use transform="matrix(0.05,0,0,0.05,22.85,0)" xlink:href="#bQ"/><use transform="matrix(0.05,0,0,0.05,27.85,0)" xlink:href="#bO"/><use transform="matrix(0.05,0,0,0.05,37.85,0)" xlink:href="#bP"/></g><g id="ah"><use transform="matrix(0.05,0,0,0.05,0,0)" xlink:href="#bQ"/><use transform="matrix(0.05,0,0,0.05,5,0)" xlink:href="#bO"/><use transform="matrix(0.05,0,0,0.05,15,0)" xlink:href="#bP"/><use transform="matrix(0.05,0,0,0.05,24,0)" xlink:href="#bQ"/><use transform="matrix(0.05,0,0,0.05,29,0)" xlink:href="#bP"/></g><g id="ai"><use transform="matrix(0.05,0,0,0.05,0,0)" xlink:href="#cs"/><use transform="matrix(0.05,0,0,0.05,5,0)" xlink:href="#bN"/><use transform="matrix(0.05,0,0,0.05,15,0)" xlink:href="#cf"/><use transform="matrix(0.05,0,0,0.05,24,0)" xlink:href="#bW"/><use transform="matrix(0.05,0,0,0.05,34,0)" xlink:href="#bP"/><use transform="matrix(0.05,0,0,0.05,43,0)" xlink:href="#bO"/><use transform="matrix(0.05,0,0,0.05,53,0)" xlink:href="#bP"/></g><g id="aj"><use transform="matrix(0.05,0,0,0.05,0,0)" xlink:href="#bN"/><use transform="matrix(0.05,0,0,0.05,10,0)" xlink:href="#ca"/></g><g id="ak"><use transform="matrix(0.05,0,0,0.05,0,0)" xlink:href="#cf"/><use transform="matrix(0.05,0,0,0.05,9,0)" xlink:href="#bN"/><use transform="matrix(0.05,0,0,0.05,19,0)" xlink:href="#bY"/><use transform="matrix(0.05,0,0,0.05,29,0)" xlink:href="#bO"/></g><g id="al"><use transform="matrix(0.05,0,0,0.05,0,0)" xlink:href="#bV"/><use transform="matrix(0.05,0,0,0.05,10,0)" xlink:href="#bW"/><use transform="matrix(0.05,0,0,0.05,20,0)" xlink:href="#bS"/><use transform="matrix(0.05,0,0,0.05,30,0)" xlink:href="#bZ"/><use transform="matrix(0.05,0,0,0.05,33.95,0)" xlink:href="#bX"/><use transform="matrix(0.05,0,0,0.05,37.900000000000006,0)" xlink:href="#bQ"/><use transform="matrix(0.05,0,0,0.05,42.900000000000006,0)" xlink:href="#cc"/></g><g id="am"><use transform="matrix(0.05,0,0,0.05,0,0)" xlink:href="#cf"/><use transform="matrix(0.05,0,0,0.05,9,0)" xlink:href="#bN"/><use transform="matrix(0.05,0,0,0.05,19,0)" xlink:href="#ca"/><use transform="matrix(0.05,0,0,0.05,29,0)" xlink:href="#bP"/><use transform="matrix(0.05,0,0,0.05,38,0)" xlink:href="#bX"/><use transform="matrix(0.05,0,0,0.05,41.95,0)" xlink:href="#bP"/><use transform="matrix(0.05,0,0,0.05,50.95,0)" xlink:href="#bQ"/><use transform="matrix(0.05,0,0,0.05,55.95,0)" xlink:href="#bO"/><use transform="matrix(0.05,0,0,0.05,65.95,0)" xlink:href="#ca"/><use transform="matrix(0.05,0,0,0.05,75.95,0)" xlink:href="#cf"/><use transform="matrix(0.05,0,0,0.05,84.95,0)" xlink:href="#cc"/></g><path d="M63-220v92h138v28H63V0H30v-248h175v28H63" id="cy"/><g id="an"><use transform="matrix(0.05,0,0,0.05,0,0)" xlink:href="#cy"/><use transform="matrix(0.05,0,0,0.05,10.950000000000001,0)" xlink:href="#bS"/><use transform="matrix(0.05,0,0,0.05,20.950000000000003,0)" xlink:href="#bP"/><use transform="matrix(0.05,0,0,0.05,29.950000000000003,0)" xlink:href="#bQ"/></g><g id="ao"><use transform="matrix(0.05,0,0,0.05,0,0)" xlink:href="#bY"/><use transform="matrix(0.05,0,0,0.05,10,0)" xlink:href="#bO"/><use transform="matrix(0.05,0,0,0.05,20,0)" xlink:href="#ck"/><use transform="matrix(0.05,0,0,0.05,29,0)" xlink:href="#bO"/><use transform="matrix(0.05,0,0,0.05,39,0)" xlink:href="#bZ"/><use transform="matrix(0.05,0,0,0.05,42.95,0)" xlink:href="#bN"/><use transform="matrix(0.05,0,0,0.05,52.95,0)" xlink:href="#cd"/><use transform="matrix(0.05,0,0,0.05,62.95,0)" xlink:href="#bT"/><use transform="matrix(0.05,0,0,0.05,77.9,0)" xlink:href="#bO"/><use transform="matrix(0.05,0,0,0.05,87.9,0)" xlink:href="#ca"/><use transform="matrix(0.05,0,0,0.05,97.9,0)" xlink:href="#bQ"/></g><g id="ap"><use transform="matrix(0.05,0,0,0.05,0,0)" xlink:href="#bZ"/><use transform="matrix(0.05,0,0,0.05,3.95,0)" xlink:href="#bX"/><use transform="matrix(0.05,0,0,0.05,7.9,0)" xlink:href="#cs"/><use transform="matrix(0.05,0,0,0.05,12.9,0)" xlink:href="#bO"/><use transform="matrix(0.05,0,0,0.05,22.9,0)" xlink:href="#cf"/><use transform="matrix(0.05,0,0,0.05,31.899999999999995,0)" xlink:href="#cc"/><use transform="matrix(0.05,0,0,0.05,40.9,0)" xlink:href="#cf"/><use transform="matrix(0.05,0,0,0.05,49.9,0)" xlink:href="#bZ"/><use transform="matrix(0.05,0,0,0.05,53.85,0)" xlink:href="#bO"/><use transform="matrix(0.05,0,0,0.05,63.85,0)" xlink:href="#bP"/></g><g id="aq"><use transform="matrix(0.05,0,0,0.05,0,0)" xlink:href="#bN"/><use transform="matrix(0.05,0,0,0.05,10,0)" xlink:href="#ck"/><use transform="matrix(0.05,0,0,0.05,19,0)" xlink:href="#bO"/><use transform="matrix(0.05,0,0,0.05,29,0)" xlink:href="#bU"/></g><g id="ar"><use transform="matrix(0.05,0,0,0.05,0,0)" xlink:href="#cf"/><use transform="matrix(0.05,0,0,0.05,9,0)" xlink:href="#bN"/><use transform="matrix(0.05,0,0,0.05,19,0)" xlink:href="#bT"/><use transform="matrix(0.05,0,0,0.05,33.95,0)" xlink:href="#cd"/><use transform="matrix(0.05,0,0,0.05,43.95,0)" xlink:href="#bZ"/><use transform="matrix(0.05,0,0,0.05,47.900000000000006,0)" xlink:href="#bO"/><use transform="matrix(0.05,0,0,0.05,57.900000000000006,0)" xlink:href="#ch"/><use transform="matrix(0.05,0,0,0.05,66.9,0)" xlink:href="#bX"/><use transform="matrix(0.05,0,0,0.05,70.85000000000001,0)" xlink:href="#bQ"/><use transform="matrix(0.05,0,0,0.05,75.85000000000001,0)" xlink:href="#cc"/></g><g id="as"><use transform="matrix(0.05,0,0,0.05,0,0)" xlink:href="#bR"/><use transform="matrix(0.05,0,0,0.05,10,0)" xlink:href="#bS"/><use transform="matrix(0.05,0,0,0.05,20,0)" xlink:href="#ca"/><use transform="matrix(0.05,0,0,0.05,30,0)" xlink:href="#bY"/><use transform="matrix(0.05,0,0,0.05,40,0)" xlink:href="#bZ"/><use transform="matrix(0.05,0,0,0.05,43.95,0)" xlink:href="#bX"/><use transform="matrix(0.05,0,0,0.05,47.900000000000006,0)" xlink:href="#ca"/><use transform="matrix(0.05,0,0,0.05,57.900000000000006,0)" xlink:href="#cj"/></g><path d="M30-248c87 1 191-15 191 75 0 78-77 80-158 76V0H30v-248zm33 125c57 0 124 11 124-50 0-59-68-47-124-48v98" id="cz"/><g id="at"><use transform="matrix(0.05,0,0,0.05,0,0)" xlink:href="#cz"/><use transform="matrix(0.05,0,0,0.05,12,0)" xlink:href="#bU"/><use transform="matrix(0.05,0,0,0.05,17.95,0)" xlink:href="#bN"/><use transform="matrix(0.05,0,0,0.05,27.950000000000003,0)" xlink:href="#bY"/><use transform="matrix(0.05,0,0,0.05,37.95,0)" xlink:href="#bW"/><use transform="matrix(0.05,0,0,0.05,47.95,0)" xlink:href="#cf"/><use transform="matrix(0.05,0,0,0.05,56.95,0)" xlink:href="#bQ"/></g><g id="au"><use transform="matrix(0.05,0,0,0.05,0,0)" xlink:href="#co"/><use transform="matrix(0.05,0,0,0.05,14,0)" xlink:href="#ct"/><use transform="matrix(0.05,0,0,0.05,26.950000000000003,0)" xlink:href="#ca"/><use transform="matrix(0.05,0,0,0.05,36.95,0)" xlink:href="#bO"/><use transform="matrix(0.05,0,0,0.05,46.95,0)" xlink:href="#bU"/><use transform="matrix(0.05,0,0,0.05,52.900000000000006,0)" xlink:href="#bP"/></g><g id="av"><use transform="matrix(0.05,0,0,0.05,0,0)" xlink:href="#bW"/><use transform="matrix(0.05,0,0,0.05,10,0)" xlink:href="#ca"/><use transform="matrix(0.05,0,0,0.05,20,0)" xlink:href="#bY"/><use transform="matrix(0.05,0,0,0.05,30,0)" xlink:href="#bO"/><use transform="matrix(0.05,0,0,0.05,40,0)" xlink:href="#bU"/><use transform="matrix(0.05,0,0,0.05,45.95,0)" xlink:href="#bP"/><use transform="matrix(0.05,0,0,0.05,54.95,0)" xlink:href="#bQ"/><use transform="matrix(0.05,0,0,0.05,59.95,0)" xlink:href="#bS"/><use transform="matrix(0.05,0,0,0.05,69.95,0)" xlink:href="#ca"/><use transform="matrix(0.05,0,0,0.05,79.95,0)" xlink:href="#bY"/></g><g id="aw"><use transform="matrix(0.05,0,0,0.05,0,0)" xlink:href="#bS"/><use transform="matrix(0.05,0,0,0.05,10,0)" xlink:href="#cj"/><use transform="matrix(0.05,0,0,0.05,20,0)" xlink:href="#bU"/><use transform="matrix(0.05,0,0,0.05,25.950000000000003,0)" xlink:href="#bO"/><use transform="matrix(0.05,0,0,0.05,35.95,0)" xlink:href="#bO"/></g><g id="ax"><use transform="matrix(0.05,0,0,0.05,0,0)" xlink:href="#bQ"/><use transform="matrix(0.05,0,0,0.05,5,0)" xlink:href="#bR"/><use transform="matrix(0.05,0,0,0.05,15,0)" xlink:href="#bS"/><use transform="matrix(0.05,0,0,0.05,25,0)" xlink:href="#bQ"/></g><g id="ay"><use transform="matrix(0.05,0,0,0.05,0,0)" xlink:href="#bZ"/><use transform="matrix(0.05,0,0,0.05,3.95,0)" xlink:href="#bO"/><use transform="matrix(0.05,0,0,0.05,13.949999999999998,0)" xlink:href="#bS"/><use transform="matrix(0.05,0,0,0.05,23.95,0)" xlink:href="#bU"/><use transform="matrix(0.05,0,0,0.05,29.899999999999995,0)" xlink:href="#ca"/><use transform="matrix(0.05,0,0,0.05,39.9,0)" xlink:href="#bX"/><use transform="matrix(0.05,0,0,0.05,43.85,0)" xlink:href="#ca"/><use transform="matrix(0.05,0,0,0.05,53.85,0)" xlink:href="#cj"/></g><use transform="matrix(0.05,0,0,0.05,0,0)" xlink:href="#bS" id="az"/><g id="aA"><use transform="matrix(0.05,0,0,0.05,0,0)" xlink:href="#ca"/><use transform="matrix(0.05,0,0,0.05,10,0)" xlink:href="#bO"/><use transform="matrix(0.05,0,0,0.05,20,0)" xlink:href="#ct"/></g><g id="aB"><use transform="matrix(0.05,0,0,0.05,0,0)" xlink:href="#cz"/><use transform="matrix(0.05,0,0,0.05,12,0)" xlink:href="#bU"/><use transform="matrix(0.05,0,0,0.05,17.95,0)" xlink:href="#bN"/><use transform="matrix(0.05,0,0,0.05,27.950000000000003,0)" xlink:href="#cj"/><use transform="matrix(0.05,0,0,0.05,37.95,0)" xlink:href="#bU"/><use transform="matrix(0.05,0,0,0.05,43.900000000000006,0)" xlink:href="#bS"/><use transform="matrix(0.05,0,0,0.05,53.900000000000006,0)" xlink:href="#bT"/><use transform="matrix(0.05,0,0,0.05,68.85000000000001,0)" xlink:href="#bT"/><use transform="matrix(0.05,0,0,0.05,83.80000000000001,0)" xlink:href="#bX"/><use transform="matrix(0.05,0,0,0.05,87.75000000000001,0)" xlink:href="#ca"/><use transform="matrix(0.05,0,0,0.05,97.75000000000001,0)" xlink:href="#cj"/></g><g id="aC"><use transform="matrix(0.05,0,0,0.05,0,0)" xlink:href="#cp"/><use transform="matrix(0.05,0,0,0.05,10,0)" xlink:href="#bS"/><use transform="matrix(0.05,0,0,0.05,20,0)" xlink:href="#ca"/><use transform="matrix(0.05,0,0,0.05,30,0)" xlink:href="#cj"/><use transform="matrix(0.05,0,0,0.05,40,0)" xlink:href="#bW"/><use transform="matrix(0.05,0,0,0.05,50,0)" xlink:href="#bS"/><use transform="matrix(0.05,0,0,0.05,60,0)" xlink:href="#cj"/><use transform="matrix(0.05,0,0,0.05,70,0)" xlink:href="#bO"/></g><g id="aD"><use transform="matrix(0.05,0,0,0.05,0,0)" xlink:href="#bS"/><use transform="matrix(0.05,0,0,0.05,10,0)" xlink:href="#bY"/><use transform="matrix(0.05,0,0,0.05,20,0)" xlink:href="#bY"/><use transform="matrix(0.05,0,0,0.05,30,0)" xlink:href="#bP"/></g><g id="aE"><use transform="matrix(0.05,0,0,0.05,0,0)" xlink:href="#bP"/><use transform="matrix(0.05,0,0,0.05,9,0)" xlink:href="#bX"/><use transform="matrix(0.05,0,0,0.05,12.949999999999998,0)" xlink:href="#cj"/><use transform="matrix(0.05,0,0,0.05,22.95,0)" xlink:href="#ca"/><use transform="matrix(0.05,0,0,0.05,32.95,0)" xlink:href="#bX"/><use transform="matrix(0.05,0,0,0.05,36.900000000000006,0)" xlink:href="#cs"/><use transform="matrix(0.05,0,0,0.05,41.900000000000006,0)" xlink:href="#bX"/><use transform="matrix(0.05,0,0,0.05,45.85000000000001,0)" xlink:href="#cf"/><use transform="matrix(0.05,0,0,0.05,54.85,0)" xlink:href="#bS"/><use transform="matrix(0.05,0,0,0.05,64.85000000000001,0)" xlink:href="#ca"/><use transform="matrix(0.05,0,0,0.05,74.85000000000001,0)" xlink:href="#bQ"/></g><g id="aF"><use transform="matrix(0.05,0,0,0.05,0,0)" xlink:href="#bS"/><use transform="matrix(0.05,0,0,0.05,10,0)" xlink:href="#bT"/><use transform="matrix(0.05,0,0,0.05,24.950000000000003,0)" xlink:href="#bN"/><use transform="matrix(0.05,0,0,0.05,34.95,0)" xlink:href="#bW"/><use transform="matrix(0.05,0,0,0.05,44.95,0)" xlink:href="#ca"/><use transform="matrix(0.05,0,0,0.05,54.95,0)" xlink:href="#bQ"/></g><g id="aG"><use transform="matrix(0.05,0,0,0.05,0,0)" xlink:href="#bN"/><use transform="matrix(0.05,0,0,0.05,10,0)" xlink:href="#cs"/></g><g id="aH"><use transform="matrix(0.05,0,0,0.05,0,0)" xlink:href="#bN"/><use transform="matrix(0.05,0,0,0.05,10,0)" xlink:href="#ck"/><use transform="matrix(0.05,0,0,0.05,19,0)" xlink:href="#bO"/><use transform="matrix(0.05,0,0,0.05,29,0)" xlink:href="#bU"/><use transform="matrix(0.05,0,0,0.05,34.95,0)" xlink:href="#bR"/><use transform="matrix(0.05,0,0,0.05,44.95,0)" xlink:href="#bO"/><use transform="matrix(0.05,0,0,0.05,54.95,0)" xlink:href="#bS"/><use transform="matrix(0.05,0,0,0.05,64.95,0)" xlink:href="#bY"/></g><g id="aI"><use transform="matrix(0.05,0,0,0.05,0,0)" xlink:href="#cy"/><use transform="matrix(0.05,0,0,0.05,10.950000000000001,0)" xlink:href="#bN"/><use transform="matrix(0.05,0,0,0.05,20.950000000000003,0)" xlink:href="#cf"/><use transform="matrix(0.05,0,0,0.05,29.950000000000003,0)" xlink:href="#bW"/><use transform="matrix(0.05,0,0,0.05,39.95,0)" xlink:href="#bP"/></g><g id="aJ"><use transform="matrix(0.05,0,0,0.05,0,0)" xlink:href="#ct"/><use transform="matrix(0.05,0,0,0.05,12.950000000000001,0)" xlink:href="#bU"/><use transform="matrix(0.05,0,0,0.05,18.900000000000002,0)" xlink:href="#bX"/><use transform="matrix(0.05,0,0,0.05,22.85,0)" xlink:href="#bQ"/><use transform="matrix(0.05,0,0,0.05,27.85,0)" xlink:href="#bX"/><use transform="matrix(0.05,0,0,0.05,31.8,0)" xlink:href="#ca"/><use transform="matrix(0.05,0,0,0.05,41.8,0)" xlink:href="#cj"/></g><g id="aK"><use transform="matrix(0.05,0,0,0.05,0,0)" xlink:href="#bV"/><use transform="matrix(0.05,0,0,0.05,10,0)" xlink:href="#bW"/><use transform="matrix(0.05,0,0,0.05,20,0)" xlink:href="#bS"/><use transform="matrix(0.05,0,0,0.05,30,0)" xlink:href="#bZ"/><use transform="matrix(0.05,0,0,0.05,33.95,0)" xlink:href="#bX"/><use transform="matrix(0.05,0,0,0.05,37.900000000000006,0)" xlink:href="#bQ"/><use transform="matrix(0.05,0,0,0.05,42.900000000000006,0)" xlink:href="#cc"/></g><g id="aL"><use transform="matrix(0.05,0,0,0.05,0,0)" xlink:href="#bX"/><use transform="matrix(0.05,0,0,0.05,3.95,0)" xlink:href="#ca"/><use transform="matrix(0.05,0,0,0.05,13.949999999999998,0)" xlink:href="#bP"/><use transform="matrix(0.05,0,0,0.05,22.95,0)" xlink:href="#bQ"/><use transform="matrix(0.05,0,0,0.05,27.950000000000003,0)" xlink:href="#bO"/><use transform="matrix(0.05,0,0,0.05,37.95,0)" xlink:href="#bS"/><use transform="matrix(0.05,0,0,0.05,47.95,0)" xlink:href="#bY"/><use transform="matrix(0.05,0,0,0.05,57.95,0)" xlink:href="#cn"/></g><g id="aM"><use transform="matrix(0.05,0,0,0.05,0,0)" xlink:href="#cp"/><use transform="matrix(0.05,0,0,0.05,10,0)" xlink:href="#bO"/><use transform="matrix(0.05,0,0,0.05,20,0)" xlink:href="#bS"/><use transform="matrix(0.05,0,0,0.05,30,0)" xlink:href="#bU"/><use transform="matrix(0.05,0,0,0.05,35.95,0)" xlink:href="#ca"/></g><g id="aN"><use transform="matrix(0.05,0,0,0.05,0,0)" xlink:href="#bQ"/><use transform="matrix(0.05,0,0,0.05,5,0)" xlink:href="#bN"/></g><g id="aO"><use transform="matrix(0.05,0,0,0.05,0,0)" xlink:href="#ct"/><use transform="matrix(0.05,0,0,0.05,12.950000000000001,0)" xlink:href="#bU"/><use transform="matrix(0.05,0,0,0.05,18.900000000000002,0)" xlink:href="#bX"/><use transform="matrix(0.05,0,0,0.05,22.85,0)" xlink:href="#bQ"/><use transform="matrix(0.05,0,0,0.05,27.85,0)" xlink:href="#bO"/></g><path d="M143 0L79-87 56-68V0H24v-261h32v163l83-92h37l-77 82L181 0h-38" id="cA"/><g id="aP"><use transform="matrix(0.05,0,0,0.05,0,0)" xlink:href="#cA"/><use transform="matrix(0.05,0,0,0.05,9,0)" xlink:href="#bO"/><use transform="matrix(0.05,0,0,0.05,19,0)" xlink:href="#bO"/><use transform="matrix(0.05,0,0,0.05,29,0)" xlink:href="#cd"/></g><g id="aQ"><use transform="matrix(0.05,0,0,0.05,0,0)" xlink:href="#cu"/><use transform="matrix(0.05,0,0,0.05,9,0)" xlink:href="#ce"/></g><g id="aR"><use transform="matrix(0.05,0,0,0.05,0,0)" xlink:href="#bR"/><use transform="matrix(0.05,0,0,0.05,10,0)" xlink:href="#bX"/><use transform="matrix(0.05,0,0,0.05,13.949999999999998,0)" xlink:href="#cj"/><use transform="matrix(0.05,0,0,0.05,23.95,0)" xlink:href="#bR"/><use transform="matrix(0.05,0,0,0.05,33.95,0)" xlink:href="#bQ"/></g><g id="aS"><use transform="matrix(0.05,0,0,0.05,0,0)" xlink:href="#bX"/><use transform="matrix(0.05,0,0,0.05,3.95,0)" xlink:href="#ca"/><use transform="matrix(0.05,0,0,0.05,13.949999999999998,0)" xlink:href="#bP"/><use transform="matrix(0.05,0,0,0.05,22.95,0)" xlink:href="#bQ"/><use transform="matrix(0.05,0,0,0.05,27.950000000000003,0)" xlink:href="#bO"/><use transform="matrix(0.05,0,0,0.05,37.95,0)" xlink:href="#bS"/><use transform="matrix(0.05,0,0,0.05,47.95,0)" xlink:href="#bY"/></g><g id="aT"><use transform="matrix(0.05,0,0,0.05,0,0)" xlink:href="#bN"/><use transform="matrix(0.05,0,0,0.05,10,0)" xlink:href="#cs"/></g><g id="aU"><use transform="matrix(0.05,0,0,0.05,0,0)" xlink:href="#bX"/><use transform="matrix(0.05,0,0,0.05,3.95,0)" xlink:href="#ca"/><use transform="matrix(0.05,0,0,0.05,13.949999999999998,0)" xlink:href="#bQ"/><use transform="matrix(0.05,0,0,0.05,18.95,0)" xlink:href="#bU"/><use transform="matrix(0.05,0,0,0.05,24.9,0)" xlink:href="#bN"/><use transform="matrix(0.05,0,0,0.05,34.9,0)" xlink:href="#bY"/><use transform="matrix(0.05,0,0,0.05,44.9,0)" xlink:href="#bW"/><use transform="matrix(0.05,0,0,0.05,54.900000000000006,0)" xlink:href="#cf"/><use transform="matrix(0.05,0,0,0.05,63.900000000000006,0)" xlink:href="#bX"/><use transform="matrix(0.05,0,0,0.05,67.85,0)" xlink:href="#ca"/><use transform="matrix(0.05,0,0,0.05,77.85,0)" xlink:href="#cj"/></g><g id="aV"><use transform="matrix(0.05,0,0,0.05,0,0)" xlink:href="#bO"/><use transform="matrix(0.05,0,0,0.05,10,0)" xlink:href="#ck"/><use transform="matrix(0.05,0,0,0.05,19,0)" xlink:href="#bO"/><use transform="matrix(0.05,0,0,0.05,29,0)" xlink:href="#ca"/></g><g id="aW"><use transform="matrix(0.05,0,0,0.05,0,0)" xlink:href="#bT"/><use transform="matrix(0.05,0,0,0.05,14.950000000000001,0)" xlink:href="#bN"/><use transform="matrix(0.05,0,0,0.05,24.950000000000003,0)" xlink:href="#bU"/><use transform="matrix(0.05,0,0,0.05,30.900000000000002,0)" xlink:href="#bO"/></g><g id="aX"><use transform="matrix(0.05,0,0,0.05,0,0)" xlink:href="#bN"/><use transform="matrix(0.05,0,0,0.05,10,0)" xlink:href="#ck"/><use transform="matrix(0.05,0,0,0.05,19,0)" xlink:href="#bO"/><use transform="matrix(0.05,0,0,0.05,29,0)" xlink:href="#bU"/><use transform="matrix(0.05,0,0,0.05,34.95,0)" xlink:href="#bR"/><use transform="matrix(0.05,0,0,0.05,44.95,0)" xlink:href="#bO"/><use transform="matrix(0.05,0,0,0.05,54.95,0)" xlink:href="#bS"/><use transform="matrix(0.05,0,0,0.05,64.95,0)" xlink:href="#bY"/><use transform="matrix(0.05,0,0,0.05,74.95,0)" xlink:href="#cn"/></g><path d="M137-103V0h-34v-103L8-248h37l75 118 75-118h37" id="cB"/><g id="aY"><use transform="matrix(0.05,0,0,0.05,0,0)" xlink:href="#cB"/><use transform="matrix(0.05,0,0,0.05,10.35,0)" xlink:href="#bN"/><use transform="matrix(0.05,0,0,0.05,20.35,0)" xlink:href="#bW"/></g><g id="aZ"><use transform="matrix(0.05,0,0,0.05,0,0)" xlink:href="#cf"/><use transform="matrix(0.05,0,0,0.05,9,0)" xlink:href="#bS"/><use transform="matrix(0.05,0,0,0.05,19,0)" xlink:href="#ca"/><use transform="matrix(0.05,0,0,0.05,29,0)" xlink:href="#ca"/><use transform="matrix(0.05,0,0,0.05,39,0)" xlink:href="#bN"/><use transform="matrix(0.05,0,0,0.05,49,0)" xlink:href="#bQ"/></g><g id="ba"><use transform="matrix(0.05,0,0,0.05,0,0)" xlink:href="#bT"/><use transform="matrix(0.05,0,0,0.05,14.950000000000001,0)" xlink:href="#bS"/><use transform="matrix(0.05,0,0,0.05,24.950000000000003,0)" xlink:href="#ca"/><use transform="matrix(0.05,0,0,0.05,34.95,0)" xlink:href="#bS"/><use transform="matrix(0.05,0,0,0.05,44.95,0)" xlink:href="#cj"/><use transform="matrix(0.05,0,0,0.05,54.95,0)" xlink:href="#bO"/></g><g id="bb"><use transform="matrix(0.05,0,0,0.05,0,0)" xlink:href="#ct"/><use transform="matrix(0.05,0,0,0.05,12.950000000000001,0)" xlink:href="#bR"/><use transform="matrix(0.05,0,0,0.05,22.950000000000003,0)" xlink:href="#bS"/><use transform="matrix(0.05,0,0,0.05,32.95,0)" xlink:href="#bQ"/></g><g id="bc"><use transform="matrix(0.05,0,0,0.05,0,0)" xlink:href="#cc"/><use transform="matrix(0.05,0,0,0.05,9,0)" xlink:href="#bN"/><use transform="matrix(0.05,0,0,0.05,19,0)" xlink:href="#bW"/></g><path d="M47-170H22l-4-78h33" id="cC"/><g id="bd"><use transform="matrix(0.05,0,0,0.05,0,0)" xlink:href="#bY"/><use transform="matrix(0.05,0,0,0.05,10,0)" xlink:href="#bN"/><use transform="matrix(0.05,0,0,0.05,20,0)" xlink:href="#ca"/><use transform="matrix(0.05,0,0,0.05,30,0)" xlink:href="#cC"/><use transform="matrix(0.05,0,0,0.05,33.4,0)" xlink:href="#bQ"/></g><g id="be"><use transform="matrix(0.05,0,0,0.05,0,0)" xlink:href="#bW"/><use transform="matrix(0.05,0,0,0.05,10,0)" xlink:href="#ca"/><use transform="matrix(0.05,0,0,0.05,20,0)" xlink:href="#bY"/><use transform="matrix(0.05,0,0,0.05,30,0)" xlink:href="#bO"/><use transform="matrix(0.05,0,0,0.05,40,0)" xlink:href="#bU"/><use transform="matrix(0.05,0,0,0.05,45.95,0)" xlink:href="#bP"/><use transform="matrix(0.05,0,0,0.05,54.95,0)" xlink:href="#bQ"/><use transform="matrix(0.05,0,0,0.05,59.95,0)" xlink:href="#bS"/><use transform="matrix(0.05,0,0,0.05,69.95,0)" xlink:href="#ca"/><use transform="matrix(0.05,0,0,0.05,79.95,0)" xlink:href="#bY"/><use transform="matrix(0.05,0,0,0.05,89.95,0)" xlink:href="#cn"/></g><g id="bf"><use transform="matrix(0.05,0,0,0.05,0,0)" xlink:href="#cb"/><use transform="matrix(0.05,0,0,0.05,9.950000000000001,0)" xlink:href="#cc"/><use transform="matrix(0.05,0,0,0.05,18.950000000000003,0)" xlink:href="#cd"/><use transform="matrix(0.05,0,0,0.05,28.950000000000003,0)" xlink:href="#bO"/><use transform="matrix(0.05,0,0,0.05,38.95,0)" xlink:href="#ce"/><use transform="matrix(0.05,0,0,0.05,50.95,0)" xlink:href="#cf"/><use transform="matrix(0.05,0,0,0.05,59.95,0)" xlink:href="#bU"/><use transform="matrix(0.05,0,0,0.05,65.9,0)" xlink:href="#bX"/><use transform="matrix(0.05,0,0,0.05,69.85000000000001,0)" xlink:href="#cd"/><use transform="matrix(0.05,0,0,0.05,79.85000000000001,0)" xlink:href="#bQ"/></g><g id="bg"><use transform="matrix(0.05,0,0,0.05,0,0)" xlink:href="#cb"/><use transform="matrix(0.05,0,0,0.05,9.950000000000001,0)" xlink:href="#cc"/><use transform="matrix(0.05,0,0,0.05,18.950000000000003,0)" xlink:href="#cd"/><use transform="matrix(0.05,0,0,0.05,28.950000000000003,0)" xlink:href="#bO"/><use transform="matrix(0.05,0,0,0.05,38.95,0)" xlink:href="#ce"/><use transform="matrix(0.05,0,0,0.05,50.95,0)" xlink:href="#cf"/><use transform="matrix(0.05,0,0,0.05,59.95,0)" xlink:href="#bU"/><use transform="matrix(0.05,0,0,0.05,65.9,0)" xlink:href="#bX"/><use transform="matrix(0.05,0,0,0.05,69.85000000000001,0)" xlink:href="#cd"/><use transform="matrix(0.05,0,0,0.05,79.85000000000001,0)" xlink:href="#bQ"/></g><g id="bh"><use transform="matrix(0.05,0,0,0.05,0,0)" xlink:href="#bS"/><use transform="matrix(0.05,0,0,0.05,10,0)" xlink:href="#bP"/></g><use transform="matrix(0.05,0,0,0.05,0,0)" xlink:href="#bS" id="bi"/><g id="bj"><use transform="matrix(0.05,0,0,0.05,0,0)" xlink:href="#bQ"/><use transform="matrix(0.05,0,0,0.05,5,0)" xlink:href="#bN"/><use transform="matrix(0.05,0,0,0.05,15,0)" xlink:href="#bN"/><use transform="matrix(0.05,0,0,0.05,25,0)" xlink:href="#bZ"/></g><g id="bk"><use transform="matrix(0.05,0,0,0.05,0,0)" xlink:href="#bU"/><use transform="matrix(0.05,0,0,0.05,5.95,0)" xlink:href="#bO"/><use transform="matrix(0.05,0,0,0.05,15.949999999999998,0)" xlink:href="#bY"/><use transform="matrix(0.05,0,0,0.05,25.950000000000003,0)" xlink:href="#bW"/><use transform="matrix(0.05,0,0,0.05,35.95,0)" xlink:href="#cf"/><use transform="matrix(0.05,0,0,0.05,44.95,0)" xlink:href="#bO"/></g><g id="bl"><use transform="matrix(0.05,0,0,0.05,0,0)" xlink:href="#bQ"/><use transform="matrix(0.05,0,0,0.05,5,0)" xlink:href="#cc"/><use transform="matrix(0.05,0,0,0.05,14,0)" xlink:href="#cd"/><use transform="matrix(0.05,0,0,0.05,24,0)" xlink:href="#bX"/><use transform="matrix(0.05,0,0,0.05,27.950000000000003,0)" xlink:href="#ca"/><use transform="matrix(0.05,0,0,0.05,37.95,0)" xlink:href="#cj"/></g><g id="bm"><use transform="matrix(0.05,0,0,0.05,0,0)" xlink:href="#bO"/><use transform="matrix(0.05,0,0,0.05,10,0)" xlink:href="#bU"/><use transform="matrix(0.05,0,0,0.05,15.949999999999998,0)" xlink:href="#bU"/><use transform="matrix(0.05,0,0,0.05,21.9,0)" xlink:href="#bN"/><use transform="matrix(0.05,0,0,0.05,31.899999999999995,0)" xlink:href="#bU"/><use transform="matrix(0.05,0,0,0.05,37.85,0)" xlink:href="#bP"/></g><g id="bn"><use transform="matrix(0.05,0,0,0.05,0,0)" xlink:href="#bX"/><use transform="matrix(0.05,0,0,0.05,3.95,0)" xlink:href="#bT"/><use transform="matrix(0.05,0,0,0.05,18.900000000000002,0)" xlink:href="#cd"/><use transform="matrix(0.05,0,0,0.05,28.900000000000002,0)" xlink:href="#bU"/><use transform="matrix(0.05,0,0,0.05,34.85,0)" xlink:href="#bN"/><use transform="matrix(0.05,0,0,0.05,44.85,0)" xlink:href="#ck"/><use transform="matrix(0.05,0,0,0.05,53.85,0)" xlink:href="#bO"/></g><g id="bo"><use transform="matrix(0.05,0,0,0.05,0,0)" xlink:href="#cf"/><use transform="matrix(0.05,0,0,0.05,9,0)" xlink:href="#bN"/><use transform="matrix(0.05,0,0,0.05,19,0)" xlink:href="#ca"/><use transform="matrix(0.05,0,0,0.05,29,0)" xlink:href="#bP"/><use transform="matrix(0.05,0,0,0.05,38,0)" xlink:href="#bX"/><use transform="matrix(0.05,0,0,0.05,41.95,0)" xlink:href="#bP"/><use transform="matrix(0.05,0,0,0.05,50.95,0)" xlink:href="#bQ"/><use transform="matrix(0.05,0,0,0.05,55.95,0)" xlink:href="#bO"/><use transform="matrix(0.05,0,0,0.05,65.95,0)" xlink:href="#ca"/><use transform="matrix(0.05,0,0,0.05,75.95,0)" xlink:href="#cf"/><use transform="matrix(0.05,0,0,0.05,84.95,0)" xlink:href="#cc"/></g><g id="bp"><use transform="matrix(0.05,0,0,0.05,0,0)" xlink:href="#ct"/><use transform="matrix(0.05,0,0,0.05,12.950000000000001,0)" xlink:href="#bX"/><use transform="matrix(0.05,0,0,0.05,16.900000000000002,0)" xlink:href="#bQ"/><use transform="matrix(0.05,0,0,0.05,21.900000000000002,0)" xlink:href="#bR"/></g><g id="bq"><use transform="matrix(0.05,0,0,0.05,0,0)" xlink:href="#bQ"/><use transform="matrix(0.05,0,0,0.05,5,0)" xlink:href="#bR"/><use transform="matrix(0.05,0,0,0.05,15,0)" xlink:href="#bO"/></g><g id="br"><use transform="matrix(0.05,0,0,0.05,0,0)" xlink:href="#cl"/><use transform="matrix(0.05,0,0,0.05,10,0)" xlink:href="#bS"/><use transform="matrix(0.05,0,0,0.05,20,0)" xlink:href="#cf"/><use transform="matrix(0.05,0,0,0.05,29,0)" xlink:href="#cA"/><use transform="matrix(0.05,0,0,0.05,38,0)" xlink:href="#bO"/><use transform="matrix(0.05,0,0,0.05,48,0)" xlink:href="#ca"/><use transform="matrix(0.05,0,0,0.05,58,0)" xlink:href="#bY"/></g></defs></g></svg>